<?xml version="1.0" encoding="UTF-8"?>
<svg version="1.1" xmlns="http://www.w3.org/2000/svg" width="512" height="512">
<defs>
    <linearGradient id="paint0_linear" x1="3.26667" y1="1" x2="37.8" y2="39.1334" gradientUnits="userSpaceOnUse">
    <stop offset="0.259336" stop-color="#00f5ff"/>
    <stop offset="1" stop-color="#00ffff"/>
    </linearGradient>
</defs>

<path d="M0 0 C0.89953268 -0.00297112 1.79906536 -0.00594224 2.7258566 -0.0090034 C5.74655314 -0.01768987 8.76721005 -0.01919862 11.78791809 -0.02069092 C13.95121851 -0.02531916 16.11451812 -0.03034383 18.27781677 -0.03573608 C24.1602277 -0.04886228 30.04262721 -0.05530558 35.9250505 -0.05974674 C39.60030696 -0.06267737 43.27556031 -0.06678218 46.9508152 -0.07125092 C58.45019904 -0.08492699 69.94957575 -0.09459287 81.44896716 -0.09845281 C94.72239095 -0.10293268 107.99571172 -0.12047691 121.26910418 -0.1494534 C131.52911534 -0.17107377 141.78909752 -0.1811573 152.04913121 -0.18249393 C158.17676808 -0.18354178 164.30430812 -0.18944543 170.43192101 -0.20731354 C176.19800373 -0.22380004 181.9639169 -0.2259468 187.7300148 -0.21717453 C189.84353019 -0.21640445 191.95705471 -0.22074305 194.0705471 -0.23063278 C196.96194591 -0.24336643 199.8527455 -0.23746759 202.74414062 -0.22705078 C203.57509615 -0.23510719 204.40605167 -0.24316359 205.26218766 -0.25146413 C212.56398818 -0.19018975 219.89676142 1.2963178 225.50202942 6.26544189 C226.42435364 7.04274658 226.42435364 7.04274658 227.36531067 7.83575439 C234.68205029 17.07960102 233.73401667 27.21623966 233.64363098 38.42974854 C233.64250163 40.39164202 233.64313808 42.35353719 233.645401 44.31542969 C233.64654564 49.62272807 233.62307671 54.92966266 233.59510517 60.23687673 C233.57004986 65.79019769 233.56774626 71.34352759 233.56300354 76.89689636 C233.55058592 87.40459431 233.51778064 97.91212519 233.47760558 108.41974968 C233.43285017 120.38584981 233.41089133 132.35195804 233.39082384 144.31812108 C233.34904701 168.92565386 233.27871848 193.5330385 233.18952942 218.14044189 C229.36452294 219.42697159 225.53813683 220.70935018 221.71150208 221.99102783 C220.09943626 222.53332535 220.09943626 222.53332535 218.45480347 223.08657837 C210.22460997 225.83985372 201.98512785 228.28002193 193.56452942 230.39044189 C192.92262665 230.55342773 192.28072388 230.71641357 191.61936951 230.88433838 C183.08793862 233.04661325 174.52962427 235.02288108 165.87702942 236.64044189 C165.03124329 236.80060791 164.18545715 236.96077393 163.31404114 237.12579346 C157.57146035 238.12239193 152.01101777 238.3066602 146.18952942 238.14044189 C145.97038879 237.30641846 145.75124817 236.47239502 145.52546692 235.61309814 C141.73469368 222.16047605 137.16138364 216.17136418 125.18952942 209.14044189 C121.29250318 206.99577417 117.34371904 204.96526824 113.37702942 202.95294189 C105.09060637 198.69848662 96.85503108 194.37279648 88.68952942 189.89044189 C87.78815247 189.39777832 86.88677551 188.90511475 85.95808411 188.39752197 C82.56683413 186.54349399 79.17601053 184.68918083 75.79841614 182.81036377 C47.66841015 167.16599619 25.27285821 169.57831793 -4.86125183 177.83575439 C-10.86342432 179.45230238 -16.38941245 180.27969003 -22.62297058 180.26544189 C-23.76379089 180.26802002 -24.90461121 180.27059814 -26.08000183 180.27325439 C-28.81047058 180.14044189 -28.81047058 180.14044189 -29.81047058 179.14044189 C-29.91158015 177.14848973 -29.94124563 175.15290069 -29.94418335 173.15838623 C-29.94844833 171.85740997 -29.95271332 170.55643372 -29.95710754 169.21603394 C-29.95675797 167.76049802 -29.9562964 166.30496212 -29.95573425 164.84942627 C-29.95872428 163.32695432 -29.96212644 161.80448312 -29.96591187 160.28201294 C-29.97477718 156.13283582 -29.97709118 151.98367931 -29.97772765 147.83449364 C-29.97867565 144.370742 -29.98235312 140.90699519 -29.98589975 137.44324541 C-29.99405573 129.26516 -29.99648314 121.0870856 -29.99577332 112.90899658 C-29.99517384 104.48115954 -30.00569689 96.05338679 -30.02151698 87.62556601 C-30.0346156 80.38894395 -30.03995616 73.15234283 -30.03931791 65.91570902 C-30.03906338 61.59445345 -30.04188885 57.27325485 -30.05249596 52.95201111 C-30.06221471 48.88088606 -30.06223032 44.80987191 -30.05497932 40.73874283 C-30.0539378 39.24929262 -30.05627053 37.75983539 -30.06233978 36.27039719 C-30.13955659 15.99675651 -30.13955659 15.99675651 -24.50187683 8.77716064 C-17.19769873 1.70914535 -9.80117156 -0.01008485 0 0 Z M46.18952942 17.14044189 C46.18952942 43.21044189 46.18952942 69.28044189 46.18952942 96.14044189 C82.81952942 96.14044189 119.44952942 96.14044189 157.18952942 96.14044189 C157.18952942 70.07044189 157.18952942 44.00044189 157.18952942 17.14044189 C120.55952942 17.14044189 83.92952942 17.14044189 46.18952942 17.14044189 Z " fill="url(#paint0_linear)" transform="translate(162.8104705810547,87.85955810546875)"/>
<path d="M0 0 C2.74360732 1.43856076 5.49767915 2.85584372 8.25292969 4.27197266 C18.70403758 9.65617409 29.10962318 15.12383862 39.44824219 20.72119141 C40.32496582 21.19266602 41.20168945 21.66414063 42.10498047 22.14990234 C60.28380162 32.06179673 60.28380162 32.06179673 63.44824219 40.28369141 C65.00649361 47.04260694 65.04022731 52.29704954 61.44824219 58.28369141 C58.18223645 62.25586055 55.52149211 64.28893652 50.44824219 65.28369141 C43.05700269 64.98337016 37.28016387 62.24804176 30.63574219 59.15869141 C22.81604577 55.62200371 15.00368592 52.18808211 6.94824219 49.22119141 C6.21500732 48.94710449 5.48177246 48.67301758 4.72631836 48.390625 C-2.15918438 45.90135454 -9.12372731 44.00289383 -16.48925781 43.97119141 C-17.40578125 43.95443359 -18.32230469 43.93767578 -19.26660156 43.92041016 C-20.02070313 44.04029297 -20.77480469 44.16017578 -21.55175781 44.28369141 C-23.91868747 47.13195738 -23.91868747 47.13195738 -23.17675781 50.47119141 C-22.86738281 51.86337891 -22.86738281 51.86337891 -22.55175781 53.28369141 C-21.76414062 53.45384766 -20.97652344 53.62400391 -20.16503906 53.79931641 C-8.85742523 56.31509321 1.85263543 59.50209474 12.51074219 64.03369141 C13.70787842 64.54258911 13.70787842 64.54258911 14.92919922 65.06176758 C18.31636652 66.50731298 21.70106406 67.95778127 25.07666016 69.43017578 C38.73048367 75.84167675 38.73048367 75.84167675 53.44824219 76.28369141 C54.23199219 76.13416016 55.01574219 75.98462891 55.82324219 75.83056641 C61.8094964 74.25310753 66.49255425 71.03614114 70.44824219 66.28369141 C71.50493231 64.12131977 71.50493231 64.12131977 72.19824219 61.90869141 C72.61074219 60.71244141 73.02324219 59.51619141 73.44824219 58.28369141 C76.69669929 57.03498208 80.13463374 57.04520555 83.5859375 56.79125977 C97.21944928 55.72204344 110.23225668 52.6974214 123.44824219 49.28369141 C124.56424805 48.99703613 125.68025391 48.71038086 126.83007812 48.41503906 C149.09004842 42.60712385 170.93524287 35.41493346 192.80810547 28.31591797 C194.00801117 27.92652039 195.20791687 27.5371228 196.44418335 27.13592529 C198.72140592 26.3959958 200.99814225 25.65456768 203.27432251 24.91143799 C204.80239029 24.41411163 204.80239029 24.41411163 206.36132812 23.90673828 C207.25076111 23.61633667 208.14019409 23.32593506 209.05657959 23.0267334 C215.82723999 20.9232239 221.84320458 20.41042969 228.52636719 23.18212891 C233.7930143 26.20081689 237.18549511 31.41686255 239.04199219 37.10791016 C240.08026796 42.66867557 239.31098414 47.5901609 236.76074219 52.59619141 C231.5130568 58.69485281 225.03327609 62.5580202 218.19824219 66.65869141 C217.19390137 67.26447021 216.18956055 67.87024902 215.15478516 68.49438477 C195.26096488 80.44386383 175.14813439 91.78823416 154.44824219 102.28369141 C153.67802734 102.67637207 152.9078125 103.06905273 152.11425781 103.47363281 C148.22182126 105.45662295 144.31670689 107.41055722 140.39257812 109.33007812 C139.05507758 109.9860647 137.71990993 110.64682248 136.38671875 111.31152344 C93.98929307 132.41392227 44.36174298 152.49553166 -2.87207031 137.31103516 C-9.44145737 135.06177218 -15.76149708 132.26402701 -22.11425781 129.47119141 C-59.73134544 112.95798797 -99.42089858 104.99484745 -139.55175781 97.28369141 C-139.03838305 86.875326 -136.80734463 76.79719768 -134.73535156 66.61572266 C-134.35513011 64.7258251 -133.97542351 62.83582388 -133.59620667 60.94572449 C-132.60343892 56.00464286 -131.60374533 51.064988 -130.60253906 46.12561035 C-129.57942307 41.07173504 -128.56295154 36.01652402 -127.54589844 30.96142578 C-125.55430479 21.06753888 -123.55538234 11.17514841 -121.55175781 1.28369141 C-120.56991013 1.22965149 -119.58806244 1.17561157 -118.57646179 1.11993408 C-114.89411987 0.9162793 -111.21206584 0.7077637 -107.53007507 0.49786377 C-105.94386491 0.40810051 -104.35758198 0.31961274 -102.77122498 0.23248291 C-86.43264901 -0.66655195 -71.34042178 -3.30104304 -55.56469727 -7.64697266 C-34.75162834 -13.3346554 -18.7960234 -9.88333572 0 0 Z " fill="url(#paint0_linear)" transform="translate(232.5517578125,280.71630859375)"/>
<path d="M0 0 C2.09611951 1.71225184 3.65568954 3.33091033 4.87109375 5.76171875 C5.39032357 12.51837858 4.53294516 18.91922554 3.19042969 25.52246094 C3.01153702 26.44087265 2.83264435 27.35928436 2.64833069 28.30552673 C2.06049118 31.30857313 1.45867562 34.30859932 0.85546875 37.30859375 C0.43861809 39.40976215 0.02222328 41.51102103 -0.39373779 43.61236572 C-1.26496786 48.00119903 -2.143475 52.38849919 -3.02685547 56.77490234 C-4.15668782 62.38940981 -5.26545813 68.00784336 -6.36850357 73.62766647 C-7.22210856 77.96188686 -8.0882063 82.29353979 -8.95793915 86.62454987 C-9.37194887 88.69531717 -9.78176755 90.76692707 -10.18726349 92.83937836 C-10.75552002 95.73519805 -11.3408747 98.62705481 -11.93066406 101.51855469 C-12.09394699 102.36959274 -12.25722992 103.2206308 -12.42546082 104.09745789 C-13.59999335 109.73078645 -15.1246707 114.75114718 -20.1484375 118.11328125 C-26.59936304 120.22541861 -33.43548186 118.49561559 -39.87890625 117.13671875 C-40.61197998 116.99669434 -41.34505371 116.85666992 -42.1003418 116.71240234 C-45.8377193 115.85626676 -48.4410415 114.90206501 -51.08203125 112.05078125 C-55.18389338 105.45962112 -54.00421307 99.36443157 -52.54589844 92.15795898 C-52.3655455 91.22047821 -52.18519257 90.28299744 -51.99937439 89.31710815 C-51.40279987 86.23252182 -50.78977079 83.15147573 -50.17578125 80.0703125 C-49.75481001 77.92007252 -49.33459417 75.76968453 -48.9151001 73.61915588 C-48.03447762 69.11809397 -47.14590487 64.61869729 -46.25146484 60.12036133 C-45.10672495 54.36074565 -43.98000525 48.59778484 -42.85898972 42.8335104 C-41.99394458 38.39437959 -41.12028629 33.9569785 -40.24393463 29.52006721 C-39.82527605 27.3959134 -39.4090709 25.27127448 -38.99538422 23.14614677 C-38.41534557 20.17434704 -37.82396735 17.20502482 -37.22949219 14.23608398 C-37.06104294 13.36163132 -36.89259369 12.48717865 -36.71903992 11.58622742 C-35.60479456 6.10178662 -34.42352941 0.90830171 -30.19140625 -3.05078125 C-22.33814096 -7.57235823 -7.46778588 -4.34364793 0 0 Z " fill="url(#paint0_linear)" transform="translate(94.12890625,268.23828125)"/>
</svg>
