<?xml version="1.0" encoding="UTF-8"?>
<svg version="1.1" xmlns="http://www.w3.org/2000/svg" width="512" height="512">
<defs>
    <linearGradient id="paint0_linear" x1="3.26667" y1="1" x2="37.8" y2="39.1334" gradientUnits="userSpaceOnUse">
    <stop offset="0.259336" stop-color="#00f5ff"/>
    <stop offset="1" stop-color="#00ffff"/>
    </linearGradient>
</defs>

<path d="M0 0 C1.89237774 -0.01655567 3.78469305 -0.04384069 5.67675781 -0.08203125 C8.40682369 -0.13684706 11.13542445 -0.15868052 13.8659668 -0.17333984 C15.13027275 -0.2073439 15.13027275 -0.2073439 16.42012024 -0.24203491 C20.7145964 -0.22661998 22.47013163 -0.09570079 25.94189453 2.64941406 C29.378682 7.08607447 29.378682 7.08607447 30.67456055 9.08447266 C31.10510742 9.74060547 31.5356543 10.39673828 31.97924805 11.07275391 C32.40979492 11.74177734 32.8403418 12.41080078 33.28393555 13.10009766 C35.89320625 17.44171972 35.89320625 17.44171972 39.03393555 21.35009766 C40.6272168 20.80869141 40.6272168 20.80869141 42.25268555 20.25634766 C43.6795656 19.78697922 45.10666066 19.31826407 46.53393555 18.85009766 C47.2300293 18.61162109 47.92612305 18.37314453 48.64331055 18.12744141 C53.97208864 16.40052258 59.82618102 14.78212809 65.12768555 17.37353516 C66.46733029 18.66108261 67.75250752 20.00459823 69.03393555 21.35009766 C69.03393555 22.01009766 69.03393555 22.67009766 69.03393555 23.35009766 C69.60885742 23.59888672 70.1837793 23.84767578 70.77612305 24.10400391 C73.35960753 25.52983704 75.09659114 27.18212438 77.15893555 29.28759766 C77.84213867 29.97724609 78.5253418 30.66689453 79.22924805 31.37744141 C82.51795466 34.97223976 83.56776354 37.49204094 83.50268555 42.38916016 C82.45772226 48.98984493 79.56910332 55.20080677 77.03393555 61.35009766 C78.12061523 61.74455078 78.12061523 61.74455078 79.22924805 62.14697266 C82.08760188 63.37311887 84.37545972 64.80319148 86.90893555 66.60009766 C87.71073242 67.16212891 88.5125293 67.72416016 89.33862305 68.30322266 C90.22807617 68.97869141 91.1175293 69.65416016 92.03393555 70.35009766 C92.61491501 70.74373001 93.19589447 71.13736237 93.79447937 71.54292297 C96.48233249 73.53158133 98.63396586 75.1366547 99.70404053 78.38308716 C99.97472647 80.76030876 100.03088832 83.04753367 99.9987793 85.43994141 C100.00784805 86.3026918 100.01691681 87.1654422 100.02626038 88.05433655 C100.03537295 89.8722392 100.02676732 91.69030725 100.00146484 93.50805664 C99.97153535 96.27835973 100.02150891 99.03937037 100.07885742 101.80908203 C100.15155494 114.51652175 100.15155494 114.51652175 97.41308594 119.00927734 C95.37694169 120.83123202 93.44800281 122.08410092 91.03393555 123.35009766 C89.90336311 124.13982541 88.7789829 124.93853949 87.6628418 125.74853516 C86.65092773 126.40080078 85.63901367 127.05306641 84.59643555 127.72509766 C81.14391927 129.81648999 81.14391927 129.81648999 78.03393555 132.35009766 C78.22616699 132.89424316 78.41839844 133.43838867 78.61645508 133.99902344 C79.48279714 136.48493356 80.32096678 138.97948763 81.15893555 141.47509766 C81.46186523 142.33103516 81.76479492 143.18697266 82.0769043 144.06884766 C83.38698017 148.02954216 84.17920928 150.57351091 83.40112305 154.73291016 C82.11626476 157.19249602 80.90726318 159.06465514 79.03393555 161.10009766 C78.42163086 161.76654297 77.80932617 162.43298828 77.1784668 163.11962891 C64.54626126 176.25804305 64.54626126 176.25804305 59.44018555 176.56884766 C54.82917963 176.51048049 50.86742625 175.33471947 46.53393555 173.85009766 C45.8069043 173.61162109 45.07987305 173.37314453 44.33081055 173.12744141 C42.56169619 172.5454959 40.79728209 171.94929308 39.03393555 171.35009766 C34.60979684 177.35749413 30.26986733 183.37637234 26.26049805 189.67041016 C25.03393555 191.35009766 25.03393555 191.35009766 23.03393555 192.35009766 C17.41853657 192.7066022 11.80320527 192.79199579 6.17773438 192.86499023 C4.2988099 192.89658377 2.42008343 192.94429056 0.54199219 193.00854492 C-14.98152812 193.53223983 -14.98152812 193.53223983 -19.64282227 190.75561523 C-21.46842042 188.71026916 -22.7096517 186.77945422 -23.96606445 184.35009766 C-24.75493151 183.2189245 -25.55357762 182.09447048 -26.36450195 180.97900391 C-27.01676758 179.96708984 -27.6690332 178.95517578 -28.34106445 177.91259766 C-30.43245679 174.46008138 -30.43245679 174.46008138 -32.96606445 171.35009766 C-34.02825195 171.71103516 -35.09043945 172.07197266 -36.18481445 172.44384766 C-37.6116945 172.91321609 -39.03878956 173.38193125 -40.46606445 173.85009766 C-41.1621582 174.08857422 -41.85825195 174.32705078 -42.57543945 174.57275391 C-47.90421754 176.29967273 -53.75830992 177.91806722 -59.05981445 175.32666016 C-60.3994592 174.03911271 -61.68463643 172.69559708 -62.96606445 171.35009766 C-62.96606445 170.69009766 -62.96606445 170.03009766 -62.96606445 169.35009766 C-63.83038086 168.97111328 -63.83038086 168.97111328 -64.7121582 168.58447266 C-69.81723676 165.78862374 -73.71727376 161.07636714 -77.09106445 156.41259766 C-79.30912208 148.64939597 -74.51141528 139.65253619 -71.96606445 132.35009766 C-72.66731445 131.84220703 -73.36856445 131.33431641 -74.09106445 130.81103516 C-90.17398525 119.14217686 -90.17398525 119.14217686 -92.96606445 116.35009766 C-93.56187954 110.6179581 -93.6363983 104.88163159 -93.72119141 99.12158203 C-93.75923938 97.20072609 -93.82052675 95.28018093 -93.90576172 93.36083984 C-94.60731405 77.44068171 -94.60731405 77.44068171 -90.63769531 72.38427734 C-87.82498088 70.33222222 -85.10744309 68.83533635 -81.96606445 67.35009766 C-80.25983424 66.21099896 -78.56865053 65.04853653 -76.90356445 63.85009766 C-73.22670275 61.35009766 -73.22670275 61.35009766 -70.96606445 61.35009766 C-71.38758789 60.26470703 -71.80911133 59.17931641 -72.2434082 58.06103516 C-72.79708855 56.61583561 -73.3504575 55.17051674 -73.90356445 53.72509766 C-74.18135742 53.01224609 -74.45915039 52.29939453 -74.74536133 51.56494141 C-78.51379291 41.66713316 -78.51379291 41.66713316 -77.37231445 36.83837891 C-75.53300061 33.58381524 -73.12905394 31.11457327 -70.46606445 28.53759766 C-69.71776367 27.78446289 -69.71776367 27.78446289 -68.9543457 27.01611328 C-65.23346454 23.35009766 -65.23346454 23.35009766 -62.96606445 23.35009766 C-62.71856445 22.75197266 -62.47106445 22.15384766 -62.21606445 21.53759766 C-60.6920234 18.87052581 -59.69860511 17.78827695 -56.96606445 16.35009766 C-50.90518634 15.95738417 -46.17522396 16.8941819 -40.46606445 18.85009766 C-39.7390332 19.08857422 -39.01200195 19.32705078 -38.26293945 19.57275391 C-36.4938251 20.15469942 -34.72941099 20.75090223 -32.96606445 21.35009766 C-28.54192574 15.34270118 -24.20199624 9.32382297 -20.19262695 3.02978516 C-16.53650421 -1.97700713 -5.7151639 0.03667061 0 0 Z M-30.96606445 62.35009766 C-40.68841013 73.39155556 -45.22878035 85.0783345 -44.8840332 99.86962891 C-43.60565341 112.38651242 -38.04646495 124.23767818 -28.4230957 132.54541016 C-16.82251652 141.01023455 -4.34157628 145.8305698 10.28393555 143.72509766 C24.20253038 140.7861115 34.51644725 133.76873917 43.03393555 122.35009766 C50.29998514 110.141659 51.93498412 97.7204884 49.3815918 83.79150391 C45.44182379 70.7885786 36.34928001 60.27852682 24.6394043 53.63525391 C5.6800512 44.28348903 -15.44707159 48.47811301 -30.96606445 62.35009766 Z " fill="url(#paint0_linear)" transform="translate(140.966064453125,47.64990234375)"/>
<path d="M0 0 C1.89237774 -0.01655567 3.78469305 -0.04384069 5.67675781 -0.08203125 C8.40682369 -0.13684706 11.13542445 -0.15868052 13.8659668 -0.17333984 C15.13027275 -0.2073439 15.13027275 -0.2073439 16.42012024 -0.24203491 C20.69217695 -0.22670045 22.48015716 -0.07687993 25.96289062 2.60839844 C27.74595435 4.9688612 29.11386924 7.06407671 30.33862305 9.74072266 C34.21551781 17.28837221 34.21551781 17.28837221 40.03393555 23.35009766 C45.93709137 25.18868142 51.8476594 24.68212714 57.9362793 24.27587891 C62.66346473 24.1089976 62.66346473 24.1089976 65.7409668 26.11181641 C69.18140859 30.97063454 72.54620909 35.85314411 75.78393555 40.85009766 C76.46842773 41.88263672 77.15291992 42.91517578 77.8581543 43.97900391 C78.50913086 44.97802734 79.16010742 45.97705078 79.83081055 47.00634766 C80.42216797 47.91191406 81.01352539 48.81748047 81.62280273 49.75048828 C83.05978489 52.39771769 83.76557983 54.35774766 84.03393555 57.35009766 C81.64174996 63.43929734 77.92033097 68.53677422 73.94458008 73.69384766 C72.21815737 76.04241111 71.06023456 77.76080491 70.9284668 80.71337891 C72.625194 84.76034309 75.05880551 88.24027325 77.53393555 91.85009766 C84.17858811 101.54091337 84.17858811 101.54091337 84.03393555 105.35009766 C81.16639619 112.41160501 76.71364597 118.53257303 72.40893555 124.78759766 C71.72831055 125.79242188 71.04768555 126.79724609 70.34643555 127.83251953 C65.2902546 135.22193813 65.2902546 135.22193813 63.03393555 136.35009766 C61.46381408 136.24260009 59.89720599 136.08138709 58.3347168 135.89306641 C52.02883942 135.42096295 46.02870027 135.05680511 40.03393555 137.35009766 C33.8681353 142.6976931 29.98783504 150.06336459 26.27294922 157.23291016 C25.03393555 159.35009766 25.03393555 159.35009766 23.03393555 160.35009766 C17.38113701 160.63553779 11.7271952 160.66388299 6.06787109 160.70019531 C4.17549335 160.71675098 2.28317805 160.744036 0.39111328 160.78222656 C-2.3389526 160.83704238 -5.06755336 160.85887583 -7.7980957 160.87353516 C-8.64096634 160.89620453 -9.48383698 160.9188739 -10.35224915 160.94223022 C-14.62430586 160.92689576 -16.41228606 160.77707524 -19.89501953 158.09179688 C-21.67808325 155.73133412 -23.04599815 153.6361186 -24.27075195 150.95947266 C-28.14764672 143.4118231 -28.14764672 143.4118231 -33.96606445 137.35009766 C-39.86922028 135.51151389 -45.77978831 136.01806817 -51.8684082 136.42431641 C-56.59559364 136.59119771 -56.59559364 136.59119771 -59.6730957 134.58837891 C-63.11353749 129.72956077 -66.478338 124.8470512 -69.71606445 119.85009766 C-70.40055664 118.81755859 -71.08504883 117.78501953 -71.7902832 116.72119141 C-72.44125977 115.72216797 -73.09223633 114.72314453 -73.76293945 113.69384766 C-74.64997559 112.33549805 -74.64997559 112.33549805 -75.55493164 110.94970703 C-76.99191379 108.30247763 -77.69770874 106.34244765 -77.96606445 103.35009766 C-75.57387886 97.26089797 -71.85245988 92.16342109 -67.87670898 87.00634766 C-66.14886452 84.6558501 -64.99224931 82.93780231 -64.8605957 79.98291016 C-66.89363287 75.1409771 -70.03541136 70.97569312 -73.0168457 66.67626953 C-78.15365537 59.05237656 -78.15365537 59.05237656 -77.96606445 54.35009766 C-76.82126274 51.60769382 -75.25865574 49.23911215 -73.59106445 46.78759766 C-73.13860352 46.09593506 -72.68614258 45.40427246 -72.2199707 44.69165039 C-70.82022362 42.56498034 -69.39579088 40.45669939 -67.96606445 38.35009766 C-67.09874265 37.05070812 -66.23154921 35.7512329 -65.36450195 34.45166016 C-59.34703732 25.54058409 -59.34703732 25.54058409 -56.96606445 24.35009766 C-55.39594298 24.45759522 -53.8293349 24.61880823 -52.2668457 24.80712891 C-45.96096832 25.27923236 -39.96082917 25.6433902 -33.96606445 23.35009766 C-27.80026421 18.00250221 -23.91996394 10.63683072 -20.20507812 3.46728516 C-16.94454446 -2.10421198 -5.83592568 0.03744546 0 0 Z M-20.96606445 59.16259766 C-26.47752987 66.21996191 -29.41937037 73.94594592 -28.7824707 82.94384766 C-27.51245773 92.26600472 -23.37685056 100.27505362 -15.88012695 106.10400391 C-7.2284048 111.73645159 1.15827598 113.29605665 11.2253418 111.20166016 C20.06606603 108.5211624 26.72299747 103.11319924 31.28393555 95.17431641 C34.88725807 87.52976759 35.5149911 78.91653679 33.33862305 70.73681641 C32.40135035 68.45664458 31.33073613 66.44524111 30.03393555 64.35009766 C29.41518555 63.30402344 29.41518555 63.30402344 28.78393555 62.23681641 C24.78214972 56.20003154 19.0461718 52.04880534 12.16674805 49.71728516 C-0.47485891 47.54089128 -11.88683934 49.56401009 -20.96606445 59.16259766 Z " fill="url(#paint0_linear)" transform="translate(332.966064453125,15.64990234375)"/>
<path d="M0 0 C5.61 0 11.22 0 17 0 C17 15.84 17 31.68 17 48 C22.18944336 47.97905273 27.37888672 47.95810547 32.72558594 47.93652344 C49.84062319 47.87034729 66.95566537 47.82589858 84.07079697 47.79275131 C94.45123559 47.77211354 104.83155314 47.74396974 115.21191406 47.69824219 C124.25793609 47.65841161 133.30387045 47.63257603 142.34997773 47.62364602 C147.14122254 47.61842486 151.93221651 47.60612807 156.72338104 47.57707977 C161.23118799 47.54997035 165.73864028 47.54154591 170.246521 47.54756927 C171.90256934 47.54646703 173.55862929 47.53848643 175.21460724 47.5231781 C177.4732419 47.50331932 179.73053197 47.50804461 181.98919678 47.51898193 C183.25389675 47.51529476 184.51859673 47.51160759 185.82162094 47.50780869 C189.5756199 48.08913824 190.75948515 48.98471363 193 52 C193.48101807 54.7588501 193.48101807 54.7588501 193.45410156 57.96191406 C193.45364838 59.76332855 193.45364838 59.76332855 193.45318604 61.60113525 C193.43254089 62.89291687 193.41189575 64.18469849 193.390625 65.515625 C193.38316071 66.85511429 193.37746866 68.19461452 193.37347412 69.53411865 C193.35823213 73.05251436 193.31896418 76.57024515 193.2746582 80.08837891 C193.23367364 83.68122361 193.2154564 87.2741762 193.1953125 90.8671875 C193.15246729 97.91175567 193.0821301 104.95576436 193 112 C187.39 112 181.78 112 176 112 C176 96.16 176 80.32 176 64 C123.53 64 71.06 64 17 64 C17 79.84 17 95.68 17 112 C11.39 112 5.78 112 0 112 C0 96.16 0 80.32 0 64 C-52.47 64 -104.94 64 -159 64 C-159 79.84 -159 95.68 -159 112 C-164.61 112 -170.22 112 -176 112 C-176.07427687 104.15293437 -176.12866317 96.3060744 -176.16479492 88.45874023 C-176.17816361 85.79026928 -176.20031605 83.12228282 -176.22631836 80.45385742 C-176.26279585 76.61370748 -176.27974859 72.77388562 -176.29296875 68.93359375 C-176.30845261 67.74479111 -176.32393646 66.55598846 -176.33988953 65.3311615 C-176.34114191 59.13739425 -176.15595746 54.40987024 -173 49 C-170.08144155 47.54072077 -167.5283434 47.87735846 -164.26766968 47.87974548 C-163.56767337 47.87889106 -162.86767707 47.87803663 -162.14646876 47.87715632 C-159.78951473 47.87550283 -157.43263112 47.88102074 -155.07568359 47.88647461 C-153.39068097 47.88675654 -151.70567822 47.88659864 -150.02067566 47.8860321 C-145.43621887 47.88574434 -140.85178806 47.89163767 -136.26733732 47.89860606 C-131.48003488 47.9048431 -126.6927319 47.90544368 -121.90542603 47.90663147 C-112.83545764 47.90974375 -103.76550126 47.91795575 -94.69553816 47.92798096 C-84.37162696 47.9391453 -74.0477152 47.94465336 -63.72379947 47.94967639 C-42.48252478 47.96013844 -21.24126656 47.97848265 0 48 C0 32.16 0 16.32 0 0 Z " fill="url(#paint0_linear)" transform="translate(239,240)"/>
<path d="M0 0 C1.06863281 -0.05414063 2.13726562 -0.10828125 3.23828125 -0.1640625 C8.90093347 -0.26157435 12.53354176 -0.01161417 16.9296875 3.7578125 C19.43603994 6.31807198 21.68095137 9.0428862 23.875 11.875 C27.15755512 15.30198754 29.73300334 15.93864878 34.44726562 16.20947266 C35.87801048 16.23609863 37.30963057 16.23403793 38.74023438 16.20068359 C41.85655799 16.15635787 43.91533821 16.19548438 46.55078125 17.94140625 C49.21346734 21.6760088 51.29050389 25.57663863 53.3125 29.6875 C53.74884766 30.50025391 54.18519531 31.31300781 54.63476562 32.15039062 C56.85665504 36.67699515 57.82896788 39.51118631 56.23828125 44.4140625 C55.18145339 46.95865214 53.95509797 49.26482156 52.625 51.6875 C51.00014144 55.34343177 51.21644631 56.6622909 52.375 60.5 C53.29094984 62.27120421 54.20769277 64.0419984 55.125 65.8125 C56.85481947 69.5487089 57.8620706 71.87661111 56.625 75.875 C55.93187232 77.44305935 55.17229705 78.9822538 54.375 80.5 C53.82328125 81.6034375 53.2715625 82.706875 52.703125 83.84375 C47.02271009 94.81617538 47.02271009 94.81617538 44.375 96.5 C42.62687867 96.51034391 40.87663671 96.50820964 39.13134766 96.40820312 C33.14493228 96.13127666 28.92119866 96.60843674 24.27734375 100.63671875 C21.20950483 103.63316746 18.36155634 106.80953686 15.63330078 110.1171875 C13.86460059 112.06090459 12.68283389 112.46998016 10.07177734 112.72460938 C6.96458238 112.85400954 3.85918074 112.93392532 0.75 113 C-0.85294922 113.08121094 -0.85294922 113.08121094 -2.48828125 113.1640625 C-8.15093347 113.26157435 -11.78354176 113.01161417 -16.1796875 109.2421875 C-18.68603994 106.68192802 -20.93095137 103.9571138 -23.125 101.125 C-26.41429363 97.68470087 -28.9222531 97.10094829 -33.6484375 96.88818359 C-35.06667587 96.8795436 -36.48570312 96.90724454 -37.90234375 96.97509766 C-41.89579486 97.07087083 -43.35816644 96.74681142 -46.33203125 93.99609375 C-50.86604736 87.57708577 -56.71513467 78.6446096 -56.57421875 70.6015625 C-55.81601023 68.32304868 -54.92692091 66.51246079 -53.625 64.5 C-51.21974452 60.29710806 -51.21974452 60.29710806 -50.6875 55.625 C-51.67744661 52.32517798 -53.01771498 49.52927343 -54.6875 46.52734375 C-56.16348546 43.33552519 -56.97073617 40.69739918 -55.97583008 37.25170898 C-55.44058716 36.13517944 -55.44058716 36.13517944 -54.89453125 34.99609375 C-54.50330078 34.17302734 -54.11207031 33.34996094 -53.70898438 32.50195312 C-53.28939453 31.65568359 -52.86980469 30.80941406 -52.4375 29.9375 C-52.03724609 29.08736328 -51.63699219 28.23722656 -51.22460938 27.36132812 C-47.04206832 18.71831379 -47.04206832 18.71831379 -43.625 16.5 C-40.2265625 16.3828125 -40.2265625 16.3828125 -36.25 16.625 C-29.73388535 16.6850979 -26.25440725 15.02703152 -21.59912109 10.47998047 C-19.28814161 8.00545662 -17.03788104 5.49495737 -14.88330078 2.8828125 C-11.28674112 -1.0696349 -4.92082234 0.10457474 0 0 Z M-13 48.125 C-15.20407893 52.70270239 -15.4221639 56.50552411 -14.625 61.5 C-11.93335645 67.09033661 -8.02271682 70.12254724 -2.3125 72.4375 C2.53296994 72.55018535 7.35231077 71.29370555 11.03125 68.03125 C15.04959544 63.26530541 15.71651863 60.10165185 15.6640625 54.04296875 C15.11801802 49.23925309 12.02700867 45.51687673 8.375 42.5 C-0.35396052 39.59034649 -6.8509547 41.32868677 -13 48.125 Z " fill="url(#paint0_linear)" transform="translate(247.625,383.5)"/>
<path d="M0 0 C1.06863281 -0.05414063 2.13726562 -0.10828125 3.23828125 -0.1640625 C8.90093347 -0.26157435 12.53354176 -0.01161417 16.9296875 3.7578125 C19.43603994 6.31807198 21.68095137 9.0428862 23.875 11.875 C27.15755512 15.30198754 29.73300334 15.93864878 34.44726562 16.20947266 C35.87801048 16.23609863 37.30963057 16.23403793 38.74023438 16.20068359 C41.92848699 16.15533477 43.92997106 16.19286735 46.59375 18.03125 C48.94795051 21.29408931 50.82230633 24.65796595 52.625 28.25 C52.98851562 28.92804688 53.35203125 29.60609375 53.7265625 30.3046875 C56.25199111 35.29858017 56.95508311 38.9059312 56.375 44.5 C55.24609375 47.2578125 55.24609375 47.2578125 53.8125 49.625 C51.78140169 53.39937609 51.78140169 53.39937609 51.3125 57.625 C52.44197476 60.68122583 53.84349361 63.3983774 55.53515625 66.1796875 C57.08501247 70.46161586 57.12647496 74.4509798 55.57202148 78.68945312 C54.48379289 80.95260777 53.3047859 83.13031407 52.0625 85.3125 C51.65837891 86.06208984 51.25425781 86.81167969 50.83789062 87.58398438 C47.19232879 94.21712859 47.19232879 94.21712859 44.375 96.5 C42.62687867 96.51034391 40.87663671 96.50820964 39.13134766 96.40820312 C33.14493228 96.13127666 28.92119866 96.60843674 24.27734375 100.63671875 C21.20950483 103.63316746 18.36155634 106.80953686 15.63330078 110.1171875 C13.86460059 112.06090459 12.68283389 112.46998016 10.07177734 112.72460938 C6.96458238 112.85400954 3.85918074 112.93392532 0.75 113 C-0.85294922 113.08121094 -0.85294922 113.08121094 -2.48828125 113.1640625 C-8.15093347 113.26157435 -11.78354176 113.01161417 -16.1796875 109.2421875 C-18.68603994 106.68192802 -20.93095137 103.9571138 -23.125 101.125 C-26.41429363 97.68470087 -28.9222531 97.10094829 -33.6484375 96.88818359 C-35.06667587 96.8795436 -36.48570312 96.90724454 -37.90234375 96.97509766 C-41.97020191 97.0726553 -43.36831044 96.74210492 -46.375 93.90625 C-50.62078875 87.90459074 -55.86780728 79.78104344 -56.375 72.25 C-55.50732555 67.91162777 -53.76482588 64.68388005 -51.6875 60.8125 C-50.19105187 57.55552465 -50.38952568 55.84304817 -51.625 52.5 C-52.63619909 50.57467692 -53.65484674 48.67868615 -54.78515625 46.8203125 C-56.39715968 42.36668441 -56.3700909 38.46645012 -54.7121582 34.09082031 C-53.47382522 31.52729783 -52.14212423 29.04569681 -50.75 26.5625 C-50.28980469 25.70076172 -49.82960938 24.83902344 -49.35546875 23.95117188 C-45.93090503 17.65295252 -45.93090503 17.65295252 -43.625 16.5 C-42.56796875 16.55800781 -41.5109375 16.61601562 -40.421875 16.67578125 C-33.80306826 16.98694296 -28.71858982 16.86054134 -23.5234375 12.35546875 C-20.45599452 9.362188 -17.60995382 6.1885203 -14.88330078 2.8828125 C-11.28674112 -1.0696349 -4.92082234 0.10457474 0 0 Z M-13 48.125 C-15.20407893 52.70270239 -15.4221639 56.50552411 -14.625 61.5 C-11.93335645 67.09033661 -8.02271682 70.12254724 -2.3125 72.4375 C2.53296994 72.55018535 7.35231077 71.29370555 11.03125 68.03125 C15.04762956 63.26763703 15.73093376 60.09922521 15.65234375 54.0390625 C15.10129717 48.99426985 12.36988756 46.40013636 8.75 43.125 C0.14596512 38.98231654 -6.75645256 41.22423703 -13 48.125 Z " fill="url(#paint0_linear)" transform="translate(423.625,383.5)"/>
<path d="M0 0 C1.06863281 -0.05414063 2.13726562 -0.10828125 3.23828125 -0.1640625 C8.90093347 -0.26157435 12.53354176 -0.01161417 16.9296875 3.7578125 C19.43603994 6.31807198 21.68095137 9.0428862 23.875 11.875 C27.15755512 15.30198754 29.73300334 15.93864878 34.44726562 16.20947266 C35.87801048 16.23609863 37.30963057 16.23403793 38.74023438 16.20068359 C41.92848699 16.15533477 43.92997106 16.19286735 46.59375 18.03125 C48.94795051 21.29408931 50.82230633 24.65796595 52.625 28.25 C52.98851563 28.92804688 53.35203125 29.60609375 53.7265625 30.3046875 C56.25199111 35.29858017 56.95508311 38.9059312 56.375 44.5 C55.24609375 47.2578125 55.24609375 47.2578125 53.8125 49.625 C51.78140169 53.39937609 51.78140169 53.39937609 51.3125 57.625 C52.44197476 60.68122583 53.84349361 63.3983774 55.53515625 66.1796875 C57.08501247 70.46161586 57.12647496 74.4509798 55.57202148 78.68945312 C54.48379289 80.95260777 53.3047859 83.13031407 52.0625 85.3125 C51.65837891 86.06208984 51.25425781 86.81167969 50.83789062 87.58398438 C47.19232879 94.21712859 47.19232879 94.21712859 44.375 96.5 C42.62687867 96.51034391 40.87663671 96.50820964 39.13134766 96.40820312 C33.14493228 96.13127666 28.92119866 96.60843674 24.27734375 100.63671875 C21.20950483 103.63316746 18.36155634 106.80953686 15.63330078 110.1171875 C13.86460059 112.06090459 12.68283389 112.46998016 10.07177734 112.72460938 C6.96458238 112.85400954 3.85918074 112.93392532 0.75 113 C-0.85294922 113.08121094 -0.85294922 113.08121094 -2.48828125 113.1640625 C-8.15093347 113.26157435 -11.78354176 113.01161417 -16.1796875 109.2421875 C-18.68603994 106.68192802 -20.93095137 103.9571138 -23.125 101.125 C-26.41429363 97.68470087 -28.9222531 97.10094829 -33.6484375 96.88818359 C-35.06667587 96.8795436 -36.48570312 96.90724454 -37.90234375 96.97509766 C-41.97020191 97.0726553 -43.36831044 96.74210492 -46.375 93.90625 C-50.62078875 87.90459074 -55.86780728 79.78104344 -56.375 72.25 C-55.50732555 67.91162777 -53.76482588 64.68388005 -51.6875 60.8125 C-50.19105187 57.55552465 -50.38952568 55.84304817 -51.625 52.5 C-52.63619909 50.57467692 -53.65484674 48.67868615 -54.78515625 46.8203125 C-56.39715968 42.36668441 -56.3700909 38.46645012 -54.7121582 34.09082031 C-53.47382522 31.52729783 -52.14212423 29.04569681 -50.75 26.5625 C-50.28980469 25.70076172 -49.82960938 24.83902344 -49.35546875 23.95117188 C-45.93090503 17.65295252 -45.93090503 17.65295252 -43.625 16.5 C-42.56796875 16.55800781 -41.5109375 16.61601562 -40.421875 16.67578125 C-33.80306826 16.98694296 -28.71858982 16.86054134 -23.5234375 12.35546875 C-20.45599452 9.362188 -17.60995382 6.1885203 -14.88330078 2.8828125 C-11.28674112 -1.0696349 -4.92082234 0.10457474 0 0 Z M-13 48.125 C-15.20407893 52.70270239 -15.4221639 56.50552411 -14.625 61.5 C-11.93335645 67.09033661 -8.02271682 70.12254724 -2.3125 72.4375 C2.53296994 72.55018535 7.35231077 71.29370555 11.03125 68.03125 C15.04762956 63.26763703 15.73093376 60.09922521 15.65234375 54.0390625 C15.10129717 48.99426985 12.36988756 46.40013636 8.75 43.125 C0.14596512 38.98231654 -6.75645256 41.22423703 -13 48.125 Z " fill="url(#paint0_linear)" transform="translate(71.625,383.5)"/>
</svg>
