<?xml version="1.0" encoding="UTF-8"?>
<svg version="1.1" xmlns="http://www.w3.org/2000/svg" width="512" height="512">
<defs>
    <linearGradient id="paint0_linear" x1="3.26667" y1="1" x2="37.8" y2="39.1334" gradientUnits="userSpaceOnUse">
    <stop offset="0.259336" stop-color="#00f5ff"/>
    <stop offset="1" stop-color="#00ffff"/>
    </linearGradient>
</defs>

<path d="M0 0 C1.90399551 -0.00391162 1.90399551 -0.00391162 3.84645557 -0.00790226 C5.27343573 -0.00573974 6.70041575 -0.00348306 8.12739563 -0.0011425 C9.62897371 -0.00229334 11.13055151 -0.0038806 12.63212872 -0.00586975 C16.77811919 -0.01006825 20.92408683 -0.00797004 25.07007742 -0.00488353 C29.53365329 -0.00263175 33.99722509 -0.00610792 38.46080017 -0.00886345 C47.21275102 -0.01332254 55.96469333 -0.01234406 64.71664453 -0.00945081 C71.82616766 -0.00719732 78.9356884 -0.00688402 86.04521179 -0.00797462 C87.05501907 -0.00812786 88.06482635 -0.00828109 89.10523385 -0.00843897 C91.15629458 -0.00875868 93.20735532 -0.00908289 95.25841606 -0.00941156 C114.51539212 -0.01226676 133.77236343 -0.0089787 153.02933872 -0.00361119 C169.57187374 0.00085688 186.11440175 0.00008096 202.65693665 -0.00452995 C221.84249519 -0.00987501 241.02804956 -0.01199206 260.21360874 -0.00891769 C262.25735029 -0.00859912 264.30109183 -0.00828475 266.34483337 -0.00797462 C267.35053381 -0.00782035 268.35623425 -0.00766607 269.39241046 -0.00750712 C276.49778861 -0.00664176 283.60316413 -0.00810525 290.70854187 -0.01045418 C299.36131076 -0.01325162 308.01407057 -0.0125151 316.66683841 -0.00717343 C321.08610582 -0.00453566 325.50535808 -0.00353263 329.9246254 -0.00682259 C333.96350486 -0.00978401 338.00235498 -0.00819534 342.04123175 -0.00284503 C343.50890817 -0.00172018 344.97658703 -0.00231352 346.44426191 -0.00472082 C348.42618801 -0.00772435 350.40812097 -0.00407172 352.39004517 0 C353.49486897 0.00016235 354.59969278 0.0003247 355.7379961 0.00049198 C358.19502258 0.12584114 358.19502258 0.12584114 359.19502258 1.12584114 C359.30171103 3.75424621 359.34280684 6.35669026 359.3421936 8.98590279 C359.34587029 9.81950221 359.34954698 10.65310163 359.35333508 11.51196164 C359.36441832 14.3276782 359.36822369 17.14335793 359.37202454 19.95909309 C359.37828604 21.96930243 359.38493256 23.9795106 359.39193726 25.98971748 C359.40938436 31.46962404 359.41991062 36.94952184 359.42814279 42.42944932 C359.43328855 45.85395094 359.43936469 49.27844983 359.44565392 52.70294952 C359.46472237 63.41906363 359.478946 74.13517081 359.48726588 84.85129863 C359.49702409 97.21635047 359.5232997 109.58122261 359.56376678 121.94621116 C359.59396768 131.50302922 359.60873882 141.05979593 359.6120469 150.61666077 C359.61439424 156.32361667 359.6233126 162.03038097 359.64850807 167.73728561 C359.67186101 173.11433175 359.67599293 178.4910612 359.66574669 183.86814499 C359.66525286 185.83527367 359.67152795 187.80241831 359.68530273 189.76949883 C359.78806208 205.32243979 358.41507586 217.66223929 347.12471008 229.25084114 C339.47345343 236.50220633 331.51877363 240.23556106 320.91526794 240.26285553 C319.86482772 240.26793007 318.81438749 240.27300462 317.73211575 240.27823293 C316.01050024 240.27897957 316.01050024 240.27897957 314.25410461 240.27974129 C313.02985559 240.28412354 311.80560656 240.2885058 310.54425907 240.29302084 C307.14876857 240.30406822 303.753324 240.3106279 300.35782218 240.315202 C296.69435942 240.32116938 293.03091352 240.33277639 289.36746216 240.34349251 C280.52106347 240.36799098 271.67465921 240.38264014 262.82823706 240.39555258 C260.32823113 240.39926645 257.82822575 240.40323952 255.32822037 240.40730524 C239.79260054 240.43254429 224.25697979 240.45459024 208.72134399 240.46703339 C205.12451677 240.46996292 201.52768958 240.47292461 197.93086243 240.4759388 C197.03692492 240.47668485 196.14298742 240.4774309 195.2219609 240.47819956 C180.74921495 240.4908461 166.27659205 240.52406128 151.80390358 240.56574063 C136.93384853 240.6082121 122.06385638 240.63173445 107.19374084 240.63695395 C98.84929645 240.64036221 90.50504434 240.65204811 82.16065979 240.68505669 C75.05233544 240.71313014 67.94424282 240.72402468 60.83586735 240.71286123 C57.2128601 240.70769307 53.59033755 240.71043974 49.9674015 240.73532677 C46.02867732 240.76215563 42.09060468 240.74969604 38.15180969 240.73384285 C37.02191179 240.74772494 35.89201389 240.76160702 34.72787666 240.77590978 C23.89235352 240.66898149 13.77648808 237.63042007 5.90205383 229.93834114 C5.33873352 229.34021614 4.77541321 228.74209114 4.19502258 228.12584114 C3.64201477 227.56896614 3.08900696 227.01209114 2.51924133 226.43834114 C-4.98838634 218.39046235 -6.9624496 209.45739999 -6.93196106 198.71074104 C-6.93352105 197.8659627 -6.93508104 197.02118435 -6.9366883 196.15080667 C-6.94067508 193.32182903 -6.93751768 190.49290511 -6.93437195 187.66392708 C-6.93572698 185.63528093 -6.93750748 183.60663502 -6.93968201 181.57798958 C-6.94424308 176.07012358 -6.94247251 170.56227631 -6.93930292 165.05440998 C-6.93677388 159.29731571 -6.93911825 153.54022307 -6.94068909 147.78312874 C-6.9425086 138.11904296 -6.94010957 128.45496482 -6.93534851 118.7908802 C-6.92990016 107.6021602 -6.93167358 96.4134584 -6.93717492 85.22473884 C-6.94170492 75.62894654 -6.94235734 66.03315974 -6.93973625 56.43736672 C-6.93817364 50.70127644 -6.93797939 44.96519473 -6.94127274 39.229105 C-6.94415002 33.84145436 -6.94217842 28.45382734 -6.93637848 23.06617928 C-6.93505037 21.08314999 -6.93544585 19.10011874 -6.93764114 17.11709023 C-6.94035052 14.42236839 -6.93697423 11.72772353 -6.93196106 9.03300667 C-6.93419178 8.23779476 -6.9364225 7.44258285 -6.93872082 6.62327361 C-6.91471555 0.02774711 -6.47399553 0.00095134 0 0 Z M179.12202454 46.88170052 C176.1834931 51.82876827 175.69831724 56.95462882 174.86299133 62.59459114 C174.66537704 63.84303307 174.46776276 65.09147499 174.26416016 66.37774849 C173.72939858 69.75807871 173.21379378 73.14107068 172.70206451 76.52495384 C172.16817757 80.03509193 171.61758468 83.5426057 171.06855774 87.05040169 C170.18482631 92.70883 169.31112159 98.36872184 168.44355774 104.02964973 C167.3231439 111.33375215 166.16231816 118.63098709 164.98799133 125.92662239 C164.50032858 128.97613483 164.01359527 132.02579339 163.52745056 135.07554817 C163.225082 136.96790854 162.92105405 138.86000459 162.61528015 140.7518177 C162.19495159 143.36114448 161.78363915 145.97173828 161.37471008 148.58287239 C161.19267281 149.69448486 161.19267281 149.69448486 161.00695801 150.82855415 C159.7944028 158.46720728 159.7944028 158.46720728 160.19502258 166.12584114 C162.08969583 168.54253474 163.06663274 169.08676597 166.07002258 170.00084114 C169.17890071 170.30310962 169.17890071 170.30310962 171.94502258 169.25084114 C174.39046694 166.9412548 174.59643415 166.28500787 175.22966003 163.12841988 C175.39279568 162.32084299 175.55593132 161.51326611 175.72401047 160.68121719 C176.50409494 156.44903479 177.21782743 152.21006322 177.89082336 147.95958138 C178.04717255 146.98600685 178.20352173 146.01243233 178.36460876 145.00935555 C178.87615988 141.81818283 179.38353254 138.62636496 179.89033508 135.43443489 C180.24613608 133.20200782 180.6020026 130.9695912 180.95793152 128.73718452 C181.70126124 124.0699373 182.4422345 119.40232264 183.18183899 114.73448372 C184.12843181 108.76294698 185.0832939 102.7927646 186.04022408 96.82287693 C186.77706977 92.21752229 187.50830466 87.61128952 188.23798752 83.00479507 C188.58762896 80.80333328 188.93928369 78.60219024 189.29301834 76.40138245 C189.78723464 73.32272382 190.27356711 70.24291577 190.75801086 67.16270638 C190.97771545 65.81042191 190.97771545 65.81042191 191.20185852 64.43081856 C192.96160833 55.22317005 192.96160833 55.22317005 190.63252258 46.62584114 C186.59333684 44.14018837 182.86178032 43.7140732 179.12202454 46.88170052 Z M122.50337219 67.13829231 C121.79913116 67.77826149 121.09489014 68.41823067 120.36930847 69.07759285 C116.85718569 72.38612717 113.41824458 75.75994483 110.01142883 79.17662239 C109.27045456 79.91663994 108.52948029 80.65665749 107.76605225 81.41909981 C106.21616399 82.96831274 104.66751701 84.51876841 103.12007141 86.07042122 C100.74320009 88.45269619 98.36097613 90.82952611 95.97822571 93.20591927 C94.46813894 94.71666604 92.95836196 96.22772255 91.44892883 97.73912239 C90.73547806 98.45054893 90.02202728 99.16197548 89.28695679 99.8949604 C88.63214828 100.55292107 87.97733978 101.21088173 87.3026886 101.88878059 C86.7250325 102.46723228 86.1473764 103.04568398 85.55221558 103.64166451 C83.70157552 105.66545681 83.21127744 107.04050314 82.69502258 109.75084114 C83.24172255 113.44106594 83.81064772 114.16304091 86.23188782 116.82530403 C86.86964142 117.52841713 87.50739502 118.23153023 88.16447449 118.95594978 C93.64256684 124.80996786 99.27306766 130.50994722 104.9198761 136.20079231 C106.4854677 137.78306175 108.04565776 139.37069312 109.60054016 140.96348763 C111.86091671 143.27850281 114.13719247 145.5767478 116.41767883 147.87193489 C117.10846024 148.58538567 117.79924164 149.29883644 118.51095581 150.03390694 C121.48624776 152.99630513 123.45383697 154.89051375 127.50532532 156.17686653 C130.33921661 156.33341489 130.33921661 156.33341489 133.00752258 154.56334114 C135.30541128 152.24807482 135.30541128 152.24807482 136.44502258 149.37584114 C135.74173898 140.23315425 121.60485521 130.42934202 115.25752258 124.12584114 C113.98840885 122.86175264 112.7195267 121.59743158 111.45088196 120.33287239 C108.36825938 117.2611739 105.28251831 114.19264106 102.19502258 111.12584114 C103.51754436 108.18353891 104.93395203 106.15590916 107.25190735 103.9212513 C108.17780418 103.01978874 108.17780418 103.01978874 109.12240601 102.10011482 C109.78703354 101.46149513 110.45166107 100.82287544 111.13642883 100.16490364 C112.53854787 98.79294337 113.9402272 97.42053361 115.34150696 96.04771614 C117.55082635 93.8942013 119.76377861 91.74480935 121.9848175 89.6033802 C124.12990289 87.53088453 126.25898189 85.44298059 128.38642883 83.35240364 C129.0530806 82.71783241 129.71973236 82.08326118 130.40658569 81.42946053 C133.28606583 78.58201947 134.99323921 76.77187533 136.21821594 72.84996223 C136.41095693 69.98652927 136.41095693 69.98652927 134.63252258 67.31334114 C132.31725626 65.01545245 132.31725626 65.01545245 129.44502258 63.87584114 C125.73360043 64.16133515 125.16426178 64.71698324 122.50337219 67.13829231 Z M219.38252258 65.68834114 C217.08463389 68.00360746 217.08463389 68.00360746 215.94502258 70.87584114 C216.64830619 80.01852803 230.78518996 89.82234026 237.13252258 96.12584114 C238.40163632 97.38992965 239.67051847 98.6542507 240.93916321 99.91880989 C244.02178578 102.99050838 247.10752686 106.05904122 250.19502258 109.12584114 C248.87250081 112.06814338 247.45609313 114.09577312 245.13813782 116.33043098 C244.21224098 117.23189354 244.21224098 117.23189354 243.26763916 118.15156746 C242.60301163 118.79018715 241.93838409 119.42880684 241.25361633 120.08677864 C239.8514973 121.45873891 238.44981797 122.83114867 237.04853821 124.20396614 C234.83921882 126.35748098 232.62626655 128.50687293 230.40522766 130.64830208 C228.26014228 132.72079775 226.13106327 134.80870169 224.00361633 136.89927864 C223.00363869 137.85113548 223.00363869 137.85113548 221.98345947 138.82222176 C219.10397934 141.66966281 217.39680596 143.47980695 216.17182922 147.40172005 C215.97908824 150.26515301 215.97908824 150.26515301 217.75752258 152.93834114 C220.0727889 155.23622983 220.0727889 155.23622983 222.94502258 156.37584114 C226.65644474 156.09034713 227.22578339 155.53469905 229.88667297 153.11338997 C230.590914 152.47342079 231.29515503 151.83345161 232.02073669 151.17408943 C235.53285947 147.86555511 238.97180059 144.49173745 242.37861633 141.07505989 C243.11959061 140.33504234 243.86056488 139.5950248 244.62399292 138.83258247 C246.17388118 137.28336954 247.72252816 135.73291387 249.26997375 134.18126106 C251.64684507 131.79898609 254.02906904 129.42215617 256.41181946 127.04576302 C257.92190623 125.53501625 259.4316832 124.02395974 260.94111633 122.51255989 C261.65456711 121.80113335 262.36801788 121.0897068 263.10308838 120.35672188 C263.75789688 119.69876122 264.41270538 119.04080055 265.08735657 118.36290169 C265.66501266 117.78445 266.24266876 117.20599831 266.83782959 116.61001778 C268.68846965 114.58622547 269.17876772 113.21117915 269.69502258 110.50084114 C269.14832261 106.81061634 268.57939744 106.08864137 266.15815735 103.42637825 C265.52040375 102.72326515 264.88265015 102.02015205 264.22557068 101.2957325 C258.74747833 95.44171442 253.1169775 89.74173506 247.47016907 84.05088997 C245.90457747 82.46862053 244.34438741 80.88098917 242.789505 79.28819466 C240.52912845 76.97317947 238.25285269 74.67493448 235.97236633 72.37974739 C235.28158493 71.66629662 234.59080353 70.95284584 233.87908936 70.21777534 C230.90379741 67.25537716 228.9362082 65.36116853 224.88471985 64.07481575 C222.05082856 63.91826739 222.05082856 63.91826739 219.38252258 65.68834114 Z " fill="#000000" transform="translate(79.80497741699219,174.87415885925293)"/>
<path d="M0 0 C1.57789886 -0.00761181 1.57789886 -0.00761181 3.18767446 -0.0153774 C4.34222193 -0.01587516 5.49676939 -0.01637292 6.68630314 -0.01688576 C7.9137813 -0.02126801 9.14125945 -0.02565027 10.40593392 -0.03016531 C13.81508531 -0.04122463 17.22419088 -0.04777612 20.63335359 -0.05234647 C24.30978564 -0.05830788 27.98620083 -0.06991654 31.6626215 -0.08063698 C40.54355015 -0.10515112 49.42448439 -0.11978796 58.30543646 -0.13269705 C60.81498149 -0.13641011 63.32452597 -0.14038326 65.83407044 -0.14444971 C81.42616617 -0.16969058 97.0182628 -0.19173843 112.61037445 -0.20417786 C116.22146387 -0.20710745 119.83255326 -0.21006912 123.44364262 -0.21308327 C124.34113624 -0.21382932 125.23862986 -0.21457537 126.16332025 -0.21534403 C140.69109505 -0.22798839 155.21874721 -0.26119941 169.74646472 -0.3028851 C184.67072871 -0.34535654 199.59493002 -0.36887902 214.51925427 -0.37409842 C222.89501237 -0.37750695 231.27057893 -0.38919583 239.64627743 -0.42220116 C246.78207414 -0.45027472 253.91764002 -0.46116918 261.05348765 -0.4500057 C264.69066409 -0.44483733 268.32735771 -0.44758554 271.96446323 -0.47247124 C275.91856691 -0.49929842 279.87202151 -0.48684102 283.82619572 -0.47098732 C284.96066668 -0.48486941 286.09513765 -0.49875149 287.26398653 -0.51305425 C299.20589838 -0.39565708 309.11185442 3.34357373 317.67142582 11.75029564 C327.57654382 22.71411284 329.31783809 33.17720222 329.07767582 47.69951439 C329.07251957 48.98148705 329.06736332 50.2634597 329.06205082 51.58428001 C328.98227888 60.98241133 328.98227888 60.98241133 327.82767582 62.13701439 C325.89474252 62.2356261 323.95814547 62.26257112 322.0226984 62.26285553 C320.75336806 62.26546328 319.48403772 62.26807102 318.17624283 62.27075779 C316.74926267 62.26859527 315.32228265 62.26633859 313.89530277 62.26399803 C312.39372469 62.26514887 310.89214689 62.26673613 309.39056969 62.26872528 C305.24457921 62.27292378 301.09861157 62.27082557 296.95262098 62.26773906 C292.48904511 62.26548728 288.02547331 62.26896345 283.56189823 62.27171898 C274.80994738 62.27617807 266.05800507 62.27519959 257.30605388 62.27230634 C250.19653074 62.27005285 243.08701 62.26973955 235.97748661 62.27083015 C234.96767933 62.27098339 233.95787205 62.27113662 232.91746455 62.2712945 C230.86640382 62.27161421 228.81534308 62.27193842 226.76428235 62.27226709 C207.50730628 62.27512229 188.25033497 62.27183423 168.99335968 62.26646672 C152.45082466 62.26199865 135.90829665 62.26277457 119.36576176 62.26738548 C100.18020321 62.27273054 80.99464884 62.27484759 61.80908966 62.27177322 C59.76534812 62.27145465 57.72160657 62.27114028 55.67786503 62.27083015 C54.67216459 62.27067588 53.66646415 62.2705216 52.63028795 62.27036265 C45.52490979 62.26949729 38.41953428 62.27096078 31.31415653 62.27330971 C22.66138764 62.27610715 14.00862784 62.27537063 5.35585999 62.27002896 C0.93659258 62.26739119 -3.48265967 62.26638816 -7.90192699 62.26967812 C-11.94080646 62.27263954 -15.97965658 62.27105087 -20.01853335 62.26570056 C-21.48620977 62.26457571 -22.95388863 62.26516904 -24.42156351 62.26757635 C-26.40348961 62.27057988 -28.38542257 62.26692725 -30.36734676 62.26285553 C-31.47217057 62.26269318 -32.57699438 62.26253083 -33.7152977 62.26236355 C-36.17232418 62.13701439 -36.17232418 62.13701439 -37.17232418 61.13701439 C-37.44109274 57.18741409 -37.443839 53.23364191 -37.4674902 49.27568626 C-37.48445636 47.30474405 -37.52828938 45.3340914 -37.57271481 43.36357689 C-37.65204732 31.35385491 -35.14903554 22.21196862 -27.17232418 13.13701439 C-26.65927731 12.51955345 -26.14623043 11.90209251 -25.61763668 11.26592064 C-19.08201443 3.99543178 -9.72518213 0.02493944 0 0 Z M3.82767582 36.13701439 C2.5787916 40.10405837 2.45249605 42.20893812 4.01517582 46.07451439 C7.94817444 48.95871338 11.18013948 48.69745497 15.95267582 48.70342064 C19.44645353 48.01510845 20.62046344 46.87170444 22.82767582 44.13701439 C23.90410291 42.24851083 23.90410291 42.24851083 23.82767582 40.13701439 C22.1869109 36.69140805 21.0425514 35.28026477 17.82767582 33.13701439 C12.73110084 32.402115 7.68059008 32.4045037 3.82767582 36.13701439 Z M33.82767582 37.13701439 C32.66557363 39.53052934 32.66557363 39.53052934 32.82767582 42.13701439 C34.57881107 45.84962666 34.57881107 45.84962666 37.82767582 48.13701439 C43.2005156 48.7426485 47.43088467 49.02343954 52.07767582 46.07451439 C54.11743593 43.18720518 54.11743593 43.18720518 53.95267582 39.51201439 C53.10677944 36.10928886 53.10677944 36.10928886 50.82767582 34.19951439 C44.47968691 31.95126832 38.50593606 31.72777599 33.82767582 37.13701439 Z M63.82767582 37.13701439 C63.31172548 42.07003836 63.31172548 42.07003836 65.47220707 46.33623314 C68.44051535 48.60553681 70.12355659 48.67405558 73.82767582 48.63701439 C75.37455082 48.65248314 75.37455082 48.65248314 76.95267582 48.66826439 C80.48093625 48.01630322 81.66797781 46.95534371 83.82767582 44.13701439 C84.33114904 40.68462657 84.24323736 38.86919425 82.51517582 35.82451439 C79.84314451 33.15248308 77.68727234 33.1279561 73.95267582 32.88701439 C69.75790179 32.9256403 66.84275457 34.12193564 63.82767582 37.13701439 Z " fill="#000000" transform="translate(110.17232418060303,96.86298561096191)"/>
</svg>
