<?xml version="1.0" encoding="UTF-8"?>
<svg version="1.1" xmlns="http://www.w3.org/2000/svg" width="512" height="512">
<defs>
    <linearGradient id="paint0_linear" x1="3.26667" y1="1" x2="37.8" y2="39.1334" gradientUnits="userSpaceOnUse">
    <stop offset="0.259336" stop-color="#00f5ff"/>
    <stop offset="1" stop-color="#00ffff"/>
    </linearGradient>
</defs>

<path d="M0 0 C1.18151075 -0.00782324 2.36302151 -0.01564648 3.58033562 -0.02370679 C5.53686908 -0.01366855 5.53686908 -0.01366855 7.53292847 -0.00342751 C8.92756581 -0.00688223 10.32220043 -0.01164554 11.7168293 -0.01760924 C15.55806521 -0.03017457 19.39907855 -0.02392389 23.24031544 -0.01465058 C27.37943368 -0.00788297 31.51851275 -0.01832992 35.65762329 -0.02659035 C43.76963939 -0.03995441 51.88157238 -0.03703808 59.99359179 -0.02835242 C66.58436803 -0.02158677 73.17512094 -0.0206543 79.76589966 -0.02392387 C80.70269912 -0.02438357 81.63949858 -0.02484327 82.6046859 -0.0253169 C84.50757011 -0.02627604 86.41045432 -0.02724868 88.31333852 -0.02823468 C106.17119601 -0.0367964 124.02900735 -0.02694218 141.88685727 -0.01083358 C157.22121532 0.00257031 172.55550524 0.00024244 187.88986206 -0.01358986 C205.68231008 -0.02963188 223.47471762 -0.03597235 241.26717186 -0.02675307 C243.16319147 -0.02579739 245.05921109 -0.02485427 246.95523071 -0.02392387 C247.88819288 -0.02346105 248.82115505 -0.02299822 249.78238881 -0.02252137 C256.36788535 -0.01992734 262.9533563 -0.02431135 269.53884888 -0.03136253 C277.56059536 -0.03976244 285.58225374 -0.03752929 293.60399008 -0.0215203 C297.69952082 -0.01361717 301.79490449 -0.01058055 305.89043427 -0.02046776 C309.63583085 -0.02937318 313.38094331 -0.02455103 317.12631392 -0.0085351 C319.1311411 -0.00356885 321.13598782 -0.01342087 323.14079475 -0.02370679 C324.32230551 -0.01588355 325.50381626 -0.00806031 326.72113037 0 C328.25712796 0.00073059 328.25712796 0.00073059 329.82415581 0.00147593 C332.36056519 0.37752342 332.36056519 0.37752342 334.18926007 1.6345495 C335.64537518 3.80133819 335.73734404 5.04138033 335.74088192 7.64262962 C335.74932186 8.51760157 335.7577618 9.39257351 335.7664575 10.29405975 C335.76044745 11.25601194 335.75443741 12.21796413 335.74824524 13.20906639 C335.75632355 14.74106839 335.75632355 14.74106839 335.76456505 16.30401993 C335.77892721 19.74270446 335.77172051 23.18100852 335.76461792 26.61971092 C335.77031712 29.07831191 335.77727963 31.53691025 335.78541565 33.99550438 C335.80154006 39.98995664 335.80343788 45.98425814 335.79820275 51.97871733 C335.79416539 56.84943615 335.79559942 61.72012396 335.800951 66.59084129 C335.80169943 67.28340896 335.80244785 67.97597664 335.80321895 68.68953121 C335.80475038 70.09635942 335.80628873 71.50318762 335.80783392 72.91001582 C335.82156904 86.10958473 335.81611399 99.30909441 335.8046487 112.50866199 C335.79471336 124.5924414 335.80766033 136.67606776 335.8315829 148.75982356 C335.85594664 161.15957506 335.86558862 173.55925519 335.85893017 185.95903015 C335.8554321 192.92374815 335.85770863 199.88834837 335.8751812 206.85304832 C335.89140088 213.39968449 335.88676414 219.94607494 335.86787605 226.49271965 C335.864173 228.90062209 335.86734812 231.30854599 335.87776184 233.71642876 C335.89085589 236.99328999 335.87952701 240.26916287 335.86177063 243.54598045 C335.87137564 244.50793264 335.88098064 245.46988483 335.89087671 246.46098709 C335.88106242 247.33595903 335.87124813 248.21093098 335.86113644 249.11241722 C335.8610291 249.8690925 335.86092176 250.62576778 335.86081117 251.40537262 C335.36056519 253.37752342 335.36056519 253.37752342 333.68730789 255.12049735 C330.8059977 256.6771293 328.90258037 256.75348057 325.6321106 256.75504684 C324.45619228 256.76287009 323.28027397 256.77069333 322.06872177 256.77875364 C320.77574299 256.77206147 319.48276421 256.76536931 318.15060425 256.75847435 C316.76406612 256.76193016 315.37753074 256.76669421 313.99100113 256.77265608 C310.17675767 256.7852064 306.36273872 256.7789775 302.54849434 256.76969743 C298.43664129 256.76292372 294.32482749 256.77337981 290.21298218 256.78163719 C282.15624704 256.79499469 274.09959562 256.79208783 266.04285717 256.78339927 C259.49644978 256.77663105 252.95006589 256.77570226 246.40365601 256.77897072 C245.47283148 256.77943042 244.54200696 256.77989012 243.58297563 256.78036375 C241.69217268 256.7813229 239.80136974 256.78229554 237.91056681 256.78328152 C220.16999015 256.79184132 202.42945997 256.78199203 184.68889093 256.76588042 C169.45833199 256.7524767 154.22784164 256.75480463 138.99728394 256.7686367 C121.32128138 256.7846821 103.64531958 256.79101729 85.96931076 256.78179991 C84.0853653 256.78084424 82.20141984 256.77990113 80.31747437 256.77897072 C78.92697699 256.77827648 78.92697699 256.77827648 77.50838876 256.77756821 C70.96793406 256.7749752 64.42750515 256.77935602 57.88705444 256.78640938 C49.91915935 256.79481303 41.95135295 256.7925682 33.98346806 256.77656715 C29.91615987 256.76866909 25.84899968 256.76561883 21.7816925 256.7755146 C18.06095524 256.78443043 14.34050368 256.77958046 10.61979246 256.76358195 C8.63066426 256.75862424 6.64151634 256.76845847 4.6524086 256.77875364 C3.47649029 256.7709304 2.30057198 256.76310715 1.08901978 256.75504684 C0.0720187 256.75455979 -0.94498238 256.75407273 -1.99280167 256.75357091 C-5.09931016 256.31218193 -6.47114123 255.63615943 -8.63943481 253.37752342 C-9.1396808 251.40537262 -9.1396808 251.40537262 -9.14000607 249.11241722 C-9.1547275 247.79995931 -9.1547275 247.79995931 -9.16974634 246.46098709 C-9.16014133 245.4990349 -9.15053633 244.53708271 -9.14064026 243.54598045 C-9.14617466 242.52464579 -9.15170905 241.50331112 -9.15741116 240.45102692 C-9.17107667 237.01221928 -9.15601605 233.57413004 -9.1411438 230.13533592 C-9.14492482 227.67673495 -9.15042305 225.21813611 -9.15751648 222.75954247 C-9.17006116 216.76503438 -9.16387944 210.77081022 -9.1488409 204.77632952 C-9.13200182 197.79921713 -9.13518839 190.82215744 -9.13893498 183.84503102 C-9.14481691 171.39813696 -9.13062898 158.95134398 -9.10598755 146.50447655 C-9.08206577 134.41980258 -9.07498284 122.33526369 -9.08547974 110.2505703 C-9.0968828 97.09903133 -9.0988266 83.94755489 -9.08438164 70.79601669 C-9.08285576 69.39429157 -9.0813354 67.99256643 -9.07982063 66.59084129 C-9.07906282 65.90112083 -9.078305 65.21140036 -9.07752423 64.50077927 C-9.07277665 59.63450959 -9.07463618 54.76826778 -9.07888603 49.90199852 C-9.08432022 43.35537974 -9.07359549 36.80892139 -9.05193138 30.26232719 C-9.04634971 27.8544306 -9.04591077 25.44651601 -9.05088425 23.03861809 C-9.05680526 19.76188991 -9.04439291 16.48574213 -9.02711487 13.20906639 C-9.03312491 12.2471142 -9.03913496 11.28516201 -9.04532713 10.29405975 C-9.03266722 8.98160184 -9.03266722 8.98160184 -9.01975155 7.64262962 C-9.01872242 6.88595434 -9.01769329 6.12927906 -9.01663297 5.34967422 C-8.0387145 0.23670467 -4.61914927 0.00219706 0 0 Z M100.36056519 50.37752342 C99.56247437 51.0332534 99.56247437 51.0332534 98.7482605 51.70223045 C79.42573753 67.84367832 66.84694354 90.98915468 63.64181519 115.98299217 C61.28304227 144.4520708 68.72970668 171.28177965 87.36056519 193.37752342 C103.40940062 211.62978504 124.16928792 223.71886871 148.36056519 227.37752342 C149.15333862 227.50642967 149.94611206 227.63533592 150.76290894 227.76814842 C176.0713224 231.24633906 201.99832388 223.94257186 222.61056519 209.12752342 C229.04839472 204.07807196 234.72191397 198.28611007 240.36056519 192.37752342 C242.64376003 198.99878848 244.54236336 205.65471888 246.29806519 212.43611717 C247.13102585 215.6535756 247.13102585 215.6535756 250.36056519 217.37752342 C253.40886269 217.46219835 254.95156523 216.73295374 257.23947144 214.74471092 C258.99384786 212.9938787 260.69655751 211.2141659 262.36056519 209.37752342 C267.06488019 213.29778593 271.24506353 217.31469594 275.27072144 221.93611717 C277.30906542 223.59661768 277.30906542 223.59661768 280.04806519 223.60799217 C285.20378764 221.69283584 288.46964374 218.10997249 292.29806519 214.25252342 C293.09019409 213.50486717 293.882323 212.75721092 294.69845581 211.98689842 C299.31639599 207.55091462 299.31639599 207.55091462 300.48556519 201.47517967 C299.27389714 198.13888536 298.17826264 196.51214271 295.36056519 194.37752342 C294.70056519 194.37752342 294.04056519 194.37752342 293.36056519 194.37752342 C293.03056519 193.38752342 292.70056519 192.39752342 292.36056519 191.37752342 C290.73723552 189.9917542 289.07332054 188.65111074 287.36056519 187.37752342 C287.94261228 183.96732444 289.06978175 182.37266116 291.48556519 179.94002342 C293.95342031 177.21107154 293.95342031 177.21107154 294.61056519 173.62752342 C292.43955728 169.7197092 288.35036715 168.68863273 284.2326355 167.39436913 C283.14563354 167.11681786 282.05863159 166.83926659 280.93869019 166.55330467 C279.7488855 166.24715233 278.55908081 165.94099998 277.33322144 165.6255703 C276.10474487 165.31683983 274.87626831 165.00810936 273.61056519 164.69002342 C272.36661987 164.36969139 271.12267456 164.04935936 269.84103394 163.7193203 C264.17123406 162.06842317 264.17123406 162.06842317 258.36056519 161.37752342 C258.63771362 160.24314842 258.91486206 159.10877342 259.20040894 157.94002342 C259.56652227 156.41924494 259.93239482 154.89840848 260.29806519 153.37752342 C260.48046753 152.63373436 260.66286987 151.8899453 260.85079956 151.12361717 C267.02157004 125.31857698 262.21117538 99.45991547 249.34494019 76.54549217 C233.63877257 51.47127577 210.81155346 36.86701844 182.41915894 29.62752342 C153.60501775 23.72533803 122.87426071 31.75380893 100.36056519 50.37752342 Z " fill="url(#paint0_linear)" transform="translate(92.63943481445313,176.6224765777588)"/>
<path d="M0 0 C0.72010144 -0.00145344 1.44020288 -0.00290688 2.18212557 -0.00440437 C4.62573041 -0.00809055 7.0692739 -0.00456592 9.51287842 -0.0011425 C11.27019407 -0.00229329 13.02750947 -0.00388052 14.78482437 -0.00586975 C19.63771132 -0.01006891 24.49057876 -0.00796975 29.34346581 -0.00488353 C34.56778474 -0.00263202 39.7921002 -0.00610779 45.01641846 -0.00886345 C55.26030393 -0.01332283 65.50418209 -0.01234394 75.74806786 -0.00945081 C84.06945226 -0.00719743 92.39083461 -0.00688397 100.71221924 -0.00797462 C101.89409891 -0.00812786 103.07597859 -0.00828109 104.2936728 -0.00843897 C106.69422754 -0.00875867 109.09478227 -0.00908289 111.49533701 -0.00941156 C134.03429046 -0.01226684 156.57323985 -0.00897857 179.11219263 -0.00361119 C198.47459774 0.00085689 217.83699685 0.00008097 237.19940186 -0.00452995 C259.65469842 -0.00987487 282.10999143 -0.01199215 304.56528854 -0.00891769 C306.95728302 -0.00859912 309.3492775 -0.00828475 311.74127197 -0.00797462 C312.91834725 -0.00782035 314.09542252 -0.00766607 315.30816674 -0.00750712 C323.62481792 -0.00664172 331.94146685 -0.00810535 340.25811768 -0.01045418 C350.3857775 -0.01325146 360.51342956 -0.01251545 370.64108849 -0.00717343 C375.81375429 -0.00453544 380.98640715 -0.003533 386.15907288 -0.00682259 C390.8863081 -0.00978355 395.61351825 -0.00819611 400.34075117 -0.00284503 C402.05876245 -0.00171999 403.77677582 -0.00231394 405.49478579 -0.00472082 C407.81438519 -0.00772338 410.13389656 -0.00468183 412.45349121 0 C413.7466563 0.00016235 415.0398214 0.0003247 416.37217331 0.00049198 C419.22674561 0.12584114 419.22674561 0.12584114 420.22674561 1.12584114 C420.32644645 2.70447086 420.35597864 4.28757222 420.35817337 5.86934566 C420.36201452 6.90198821 420.36585566 7.93463075 420.3698132 8.9985655 C420.36894672 10.14696981 420.36808024 11.29537412 420.3671875 12.47857857 C420.37164418 14.29250793 420.37164418 14.29250793 420.3761909 16.14308232 C420.38339488 19.51534021 420.38605206 22.88754718 420.38678837 26.25980914 C420.38863416 29.89128102 420.39617944 33.52274175 420.40292358 37.15420723 C420.41653116 45.10511187 420.42253636 53.05601148 420.42693424 61.00692582 C420.42969452 65.97251636 420.43393167 70.93810494 420.43843842 75.90369415 C420.45063792 89.65224555 420.46093349 103.40079538 420.46431351 117.14935207 C420.46453307 118.03014636 420.46475264 118.91094064 420.46497886 119.81842567 C420.46519714 120.70134656 420.46541541 121.58426744 420.46564031 122.49394351 C420.46608377 124.28310796 420.46653034 126.0722724 420.46697998 127.86143684 C420.46720141 128.74892682 420.46742284 129.63641679 420.46765098 130.55080041 C420.47159366 144.91127535 420.48902839 159.27169938 420.5123395 173.63215468 C420.53608049 188.37664811 420.54851673 203.12111605 420.54968143 217.8656289 C420.55059704 226.14353432 420.55631993 234.42137356 420.57450104 242.69926071 C420.58993963 249.75350998 420.59500067 256.80767263 420.58676293 263.86193559 C420.58286868 267.45834266 420.58372538 271.05457553 420.59782028 274.65096092 C420.61299741 278.55947597 420.60465568 282.46774884 420.59423828 286.37628365 C420.60632289 288.06208321 420.60632289 288.06208321 420.61865163 289.78193933 C420.5532582 300.31388139 419.23384736 310.0266671 412.18377686 318.21959114 C405.46763836 324.76145858 397.84219703 327.3715657 388.47436047 327.38311005 C387.50689861 327.38836916 387.50689861 327.38836916 386.51989207 327.39373451 C384.36782386 327.40300702 382.21602874 327.39813609 380.06394958 327.39326668 C378.50173355 327.39700503 376.93951939 327.40160729 375.37730819 327.40699732 C371.09121178 327.41921976 366.80519347 327.41896775 362.51908362 327.41660857 C357.89387475 327.41620022 353.26869086 327.4272413 348.64349365 327.43672371 C339.58453986 327.45333029 330.52561211 327.45883309 321.46664437 327.45994847 C314.10276233 327.46089905 306.73888887 327.46500989 299.37500954 327.47134972 C278.49409559 327.48896081 257.61320219 327.49818874 236.73228075 327.49668877 C235.04405135 327.4965689 235.04405135 327.4965689 233.32171631 327.49644661 C232.19485493 327.49636485 231.06799354 327.49628309 229.90698484 327.49619885 C211.64297958 327.49538588 193.37905678 327.51452673 175.11507537 327.54272334 C156.35885377 327.57145129 137.60267238 327.5852637 118.84642822 327.58353579 C108.31736475 327.58287188 97.78838774 327.58836463 87.2593441 327.60989189 C78.29512972 327.62810243 69.33104099 327.632452 60.36681613 327.61887304 C55.79441399 327.61234292 51.22225293 327.61222785 46.64987373 327.62957954 C42.46074153 327.64531319 38.27204149 327.64244377 34.08291981 327.62501128 C32.57084615 327.62194204 31.05874021 327.62557096 29.54670461 327.63673143 C18.03551053 327.71604133 8.63528263 326.3409287 -0.01544189 318.18052864 C-7.9766264 308.87478853 -7.92300185 298.59488011 -7.90023804 286.97755623 C-7.90179803 285.75538222 -7.90335802 284.53320821 -7.90496528 283.27399862 C-7.90825745 279.89405598 -7.90708112 276.51416912 -7.90397906 273.1342299 C-7.90171347 269.48467269 -7.90521026 265.83512029 -7.90795898 262.18556404 C-7.91240243 255.04267676 -7.91144677 247.8998 -7.90854634 240.75691231 C-7.90628778 234.95474097 -7.90598175 229.15257258 -7.90707016 223.35040092 C-7.90722339 222.52458043 -7.90737663 221.69875993 -7.9075345 220.84791457 C-7.90785422 219.17034504 -7.90817844 217.49277551 -7.90850709 215.81520598 C-7.91135743 200.09198015 -7.90808129 184.36876015 -7.90270673 168.64553528 C-7.89823411 155.14238562 -7.89901925 141.63924455 -7.90362549 128.13609505 C-7.90897054 112.4597479 -7.91108803 96.78340586 -7.90801322 81.10705793 C-7.90769467 79.43750087 -7.9073803 77.76794382 -7.90707016 76.09838676 C-7.90691588 75.27688753 -7.90676161 74.4553883 -7.90660266 73.60899515 C-7.90573767 67.80799531 -7.90719989 62.00699871 -7.90954971 56.20599937 C-7.91234692 49.14537956 -7.91161093 42.08477088 -7.90626897 35.02415235 C-7.90363164 31.41899921 -7.90262749 27.81386465 -7.90591812 24.20871162 C-7.9094232 20.30987185 -7.90525295 16.41106286 -7.90023804 12.5122242 C-7.90246876 11.36040928 -7.90469948 10.20859437 -7.9069978 9.02187598 C-7.90439005 7.98614994 -7.90178231 6.9504239 -7.89909554 5.88331223 C-7.89893318 4.98223319 -7.89877083 4.08115415 -7.89860356 3.15276968 C-7.61823099 -1.38092764 -3.71641101 0.00046658 0 0 Z M26.91424561 30.75084114 C24.66878184 33.91112348 24.10140959 35.50889136 24.09252453 39.32198906 C24.08806668 40.20705344 24.08360884 41.09211782 24.07901591 42.00400233 C24.07920027 42.9823848 24.07938464 43.96076726 24.07957458 44.96879768 C24.0758979 46.00349544 24.07222121 47.03819319 24.06843311 48.10424542 C24.0573621 51.59419632 24.05354665 55.08411747 24.04974365 58.57408333 C24.04348161 61.06707543 24.03683505 63.56006659 24.02983093 66.05305672 C24.01057812 73.55101803 23.99999898 81.04897144 23.99110314 88.54695022 C23.98672154 92.07669912 23.98135439 95.60644652 23.97611427 99.13619423 C23.95910077 110.8680242 23.94460635 122.59985323 23.93736553 134.33169365 C23.93545559 137.37700845 23.93353527 140.42232324 23.93157959 143.46763802 C23.93109585 144.2245493 23.93061211 144.98146059 23.93011371 145.76130858 C23.92181252 158.02417543 23.89647468 170.28694476 23.86399891 182.54976901 C23.83093823 195.13594139 23.81291766 207.7220642 23.80972129 220.30828023 C23.80755522 227.37652395 23.79879259 234.44462548 23.77326012 241.51282692 C23.74929986 248.1612096 23.74572123 254.80938215 23.7560215 261.45781517 C23.75651848 263.89994215 23.75015073 266.34208147 23.73646545 268.78417015 C23.71884345 272.11473994 23.72580567 275.44438053 23.73899841 278.77495003 C23.72802917 279.74440961 23.71705992 280.71386919 23.70575827 281.71270633 C23.75992463 287.36546575 24.41794233 290.65901763 28.22674561 295.12584114 C32.75373183 299.21117017 35.84739421 300.24994314 41.87062454 300.25726891 C43.0531519 300.26111005 44.23567925 300.2649512 45.45404077 300.26890874 C46.75955888 300.26804226 48.06507699 300.26717577 49.41015625 300.26628304 C50.80606473 300.26886606 52.20197246 300.27187905 53.59787917 300.27528644 C57.44272406 300.28336706 61.28755029 300.2851466 65.13240266 300.2858839 C69.27567691 300.28773262 73.41894144 300.29527905 77.56221008 300.30201912 C86.62626162 300.31561065 95.69030875 300.32162848 104.75436878 300.32602978 C110.41241614 300.32879089 116.07046179 300.33302801 121.728508 300.33753395 C137.38926715 300.34972784 153.05002493 300.36002682 168.71078873 300.36340904 C169.71344264 300.36362861 170.71609656 300.36384817 171.74913393 300.36407439 C173.25674621 300.36440181 173.25674621 300.36440181 174.7948153 300.36473584 C176.83153296 300.36517931 178.86825061 300.36562587 180.90496826 300.36607552 C181.91525399 300.36629695 182.92553972 300.36651838 183.96644017 300.36674652 C200.3380193 300.37069483 216.70955393 300.38814932 233.08111587 300.41143504 C249.88340081 300.43514077 266.68566341 300.44761054 283.48796535 300.44877696 C292.92430592 300.44969418 302.36058852 300.45545814 311.79691315 300.47359657 C319.83207501 300.48898708 327.86716098 300.49412425 335.90233478 300.48585847 C340.00241952 300.4819482 344.10235138 300.48289989 348.20241737 300.49691582 C351.95664477 300.50963219 355.71060406 300.50847728 359.46483096 300.49632511 C361.46472358 300.49343592 363.46462073 300.50532104 365.46447682 300.51774716 C375.47661422 300.46741159 375.47661422 300.46741159 383.96893311 295.59068489 C386.80935616 291.76101105 388.34992491 289.66836007 388.36096668 284.92969322 C388.36765345 283.60209665 388.36765345 283.60209665 388.3744753 282.24767995 C388.37429094 281.26929748 388.37410658 280.29091502 388.37391663 279.2828846 C388.37943166 277.73083797 388.37943166 277.73083797 388.3850581 276.14743686 C388.39612911 272.65748596 388.39994456 269.16756481 388.40374756 265.67759895 C388.4100096 263.18460685 388.41665616 260.69161569 388.42366028 258.19862556 C388.4429131 250.70066425 388.45349223 243.20271084 388.46238807 235.70473206 C388.46676967 232.17498316 388.47213683 228.64523576 388.47737694 225.11548805 C388.49439045 213.38365808 388.50888486 201.65182905 388.51612568 189.91998863 C388.51803562 186.87467383 388.51995594 183.82935904 388.52191162 180.78404427 C388.52239536 180.02713298 388.5228791 179.27022169 388.5233775 178.4903737 C388.53167869 166.22750685 388.55701653 153.96473753 388.5894923 141.70191327 C388.62255298 129.11574089 388.64057356 116.52961809 388.64376992 103.94340205 C388.64593599 96.87515833 388.65469862 89.8070568 388.68023109 82.73885536 C388.70419135 76.09047268 388.70776998 69.44230013 388.69746971 62.79386711 C388.69697274 60.35174013 388.70334048 57.90960081 388.71702576 55.46751213 C388.73464776 52.13694234 388.72768554 48.80730175 388.7144928 45.47673225 C388.72546204 44.50727268 388.73643129 43.5378131 388.74773294 42.53897595 C388.69358208 36.88783426 388.0390452 33.58857944 384.22674561 29.12584114 C379.80249405 25.2282862 377.50320237 24.00172502 371.65626907 23.99162006 C370.46466588 23.98716222 369.27306269 23.98270438 368.04535031 23.97811145 C366.71122312 23.97820075 365.37709592 23.97839062 364.04296875 23.97867012 C362.63483604 23.9753724 361.22670427 23.97164703 359.81857371 23.96752864 C355.93533642 23.95749005 352.05211459 23.95378887 348.16886616 23.95113933 C343.98605502 23.94724178 339.80325618 23.93766307 335.62045288 23.92892647 C325.51216298 23.9091465 315.40387205 23.89909391 305.29556763 23.89019868 C300.53850306 23.88581828 295.7814396 23.88045083 291.02437592 23.87520981 C275.21610876 23.858196 259.40784232 23.84370104 243.59956741 23.83646107 C239.49547576 23.83455109 235.39138411 23.83263077 231.28729248 23.83067513 C230.26720709 23.83019138 229.24712171 23.82970764 228.19612464 23.82920925 C211.66536241 23.82090605 195.13467248 23.79556494 178.60394183 23.76309445 C161.64236194 23.73004857 144.68081883 23.71201455 127.71920657 23.70881683 C118.19175915 23.70664943 108.66441714 23.69786737 99.13700104 23.67235565 C91.0241852 23.65068237 82.91150038 23.64258156 74.79865888 23.65232243 C70.65815441 23.65687696 66.51792047 23.65491433 62.37745285 23.63556099 C58.58739767 23.61799829 54.79781172 23.61887041 51.00775203 23.63445828 C48.98618517 23.63797609 46.96461378 23.62175673 44.94311452 23.60485381 C36.51192282 23.66504108 32.57295867 24.32743712 26.91424561 30.75084114 Z " fill="url(#paint0_linear)" transform="translate(49.77325439453125,142.87415885925293)"/>
<path d="M0 0 C1.10316055 -0.00571014 2.20632111 -0.01142029 3.34291077 -0.01730347 C4.54868774 -0.01842133 5.75446472 -0.01953918 6.9967804 -0.02069092 C8.27037918 -0.02565582 9.54397797 -0.03062073 10.85617065 -0.03573608 C14.34816175 -0.04883813 17.84013363 -0.05530107 21.33214545 -0.05974674 C23.5165665 -0.06268181 25.70098235 -0.06678749 27.88540077 -0.07125092 C34.72779493 -0.08492181 41.57017714 -0.09458972 48.41258401 -0.09845281 C56.29615011 -0.10292876 64.17954242 -0.12045676 72.06305569 -0.1494534 C78.16599017 -0.17111697 84.26887592 -0.18115962 90.3718484 -0.18249393 C94.01234775 -0.18353887 97.65268365 -0.18937984 101.29314232 -0.20731354 C105.35982563 -0.22695721 109.4261485 -0.2224867 113.49287415 -0.21600342 C114.68852997 -0.2252182 115.88418579 -0.23443298 117.11607361 -0.243927 C128.21764935 -0.18858949 136.5784553 2.15058359 144.5683136 10.14044189 C160.23006014 30.67981266 151.5683136 75.91908966 151.5683136 91.14044189 C10.3283136 91.14044189 -130.9116864 91.14044189 -276.4316864 91.14044189 C-276.4316864 79.92044189 -276.4316864 68.70044189 -276.4316864 57.14044189 C-271.75911179 57.12831161 -271.75911179 57.12831161 -266.99214172 57.11593628 C-238.4515353 57.04092179 -209.9109759 56.95605503 -181.37043176 56.86039028 C-177.6327122 56.84787084 -173.89499236 56.83543816 -170.15727234 56.82305908 C-169.41313388 56.82059309 -168.66899542 56.81812709 -167.90230732 56.81558637 C-155.84036563 56.77582149 -143.77841452 56.74309069 -131.7164454 56.71294208 C-119.34729164 56.68186974 -106.97817796 56.64327857 -94.60906923 56.59765184 C-86.97163368 56.5697178 -79.33422758 56.54770618 -71.69675456 56.53317939 C-65.84841833 56.52142866 -60.00015163 56.49923627 -54.15186119 56.4730587 C-51.74677648 56.46395015 -49.34167602 56.45828512 -46.93657494 56.45622826 C-43.66600356 56.45292877 -40.39571309 56.43751459 -37.12519836 56.41891479 C-36.16217792 56.42084953 -35.19915748 56.42278426 -34.2069546 56.42477763 C-33.335607 56.41731213 -32.46425941 56.40984664 -31.56650734 56.40215492 C-30.81086388 56.3998766 -30.05522043 56.39759828 -29.27667868 56.39525092 C-27.18421264 56.2954474 -27.18421264 56.2954474 -25.4316864 54.14044189 C-25.23459955 51.59583582 -25.15475776 49.15104765 -25.1582489 46.60528564 C-25.13793662 45.05775268 -25.11708544 43.51022671 -25.0957489 41.96270752 C-25.0732799 39.52946091 -25.05673141 37.09649205 -25.05082703 34.66314697 C-24.97253078 15.51775761 -24.97253078 15.51775761 -18.0566864 7.32794189 C-11.98646515 2.26942418 -7.83682326 0.024333 0 0 Z M-1.4316864 29.14044189 C-4.33819423 33.65054024 -5.45076947 37.84313273 -4.4316864 43.14044189 C-2.08835534 49.21908272 0.79561642 53.12859989 6.5683136 56.14044189 C11.99892195 57.95064468 16.66575132 57.84141936 21.8183136 55.45294189 C26.6050006 52.79679989 29.41232489 49.12559721 31.5683136 44.14044189 C32.58405852 37.85351546 31.76339951 33.02806271 28.0683136 27.83184814 C24.04651577 23.29685216 19.71842451 21.28143277 13.7558136 20.89044189 C7.07714578 21.00052983 2.83754549 24.17890212 -1.4316864 29.14044189 Z M49.1933136 27.64044189 C45.55653815 33.23548104 44.7365155 37.47578801 45.5683136 44.14044189 C47.6063054 49.96799683 51.57939761 53.56732822 56.9433136 56.39044189 C61.68018243 57.74383299 65.42887032 57.48027586 70.1308136 56.07794189 C75.32090443 53.15261797 78.39786923 49.53221952 81.0058136 44.20294189 C81.99835393 38.79911119 81.35939469 34.23352712 78.8808136 29.39044189 C76.04889525 25.41044854 73.18925226 23.1549988 68.6308136 21.39044189 C60.63347847 20.42106794 54.81054539 21.72756632 49.1933136 27.64044189 Z M99.2558136 27.45294189 C95.86166753 31.79091468 94.2825175 35.58942794 94.6933136 41.14044189 C95.83299079 48.01780423 100.15720712 52.19484342 105.5683136 56.14044189 C107.47540202 57.05472528 107.47540202 57.05472528 109.5683136 57.14044189 C110.6408136 57.24356689 111.7133136 57.34669189 112.8183136 57.45294189 C118.87503624 56.94821501 123.5066227 54.69948526 127.5058136 50.07794189 C131.07877094 44.98918447 131.22955893 40.18348949 130.5683136 34.14044189 C128.54494039 28.31224733 124.55016065 24.70983508 119.1933136 21.89044189 C111.43633684 19.67416282 104.67826831 21.50403527 99.2558136 27.45294189 Z " fill="url(#paint0_linear)" transform="translate(318.4316864013672,41.85955810546875)"/>
<path d="M0 0 C2.22819498 0.00112952 4.45639145 0.00049257 6.68458557 -0.00177002 C12.70866719 -0.00291399 18.73242787 0.02054422 24.75643516 0.04852581 C31.0611429 0.07359226 37.36585863 0.0758856 43.67060852 0.08062744 C54.24465356 0.09163281 64.81859389 0.11658901 75.39257812 0.15234375 C86.27896544 0.18911634 97.16532085 0.21740232 108.05175781 0.234375 C109.06001438 0.23595134 109.06001438 0.23595134 110.08863976 0.23755953 C113.46106268 0.24278006 116.83348583 0.2478348 120.20590913 0.25280714 C148.13906318 0.29420623 176.07208775 0.36489874 204.00512695 0.45410156 C202.93169054 2.60609275 201.8513317 4.75306804 200.7512207 6.89160156 C200.31938477 7.73722656 199.88754883 8.58285156 199.44262695 9.45410156 C199.00821289 10.29972656 198.57379883 11.14535156 198.1262207 12.01660156 C193.09902408 22.94681304 195.40240412 35.93306372 195.00512695 47.45410156 C115.14512695 47.45410156 35.28512695 47.45410156 -46.99487305 47.45410156 C-46.99487305 18.41864057 -46.99487305 18.41864057 -39.3425293 9.53613281 C-28.16929218 -1.18012119 -14.44480306 -0.10266326 0 0 Z " fill="url(#paint0_linear)" transform="translate(88.994873046875,41.5458984375)"/>
<path d="M0 0 C14.53542285 10.68481083 21.84950811 30.87555215 25 48 C25.495 52.95 25.495 52.95 26 58 C13.79 58 1.58 58 -11 58 C-11.66 52.72 -12.32 47.44 -13 42 C-13.47968992 38.63977208 -13.96913849 35.2889279 -14.5 31.9375 C-14.61730469 31.16212891 -14.73460937 30.38675781 -14.85546875 29.58789062 C-15.41665256 26.01864092 -16.09352121 22.6743458 -17.09375 19.19140625 C-18 16 -18 16 -18 12 C-15.83984375 10.25390625 -15.83984375 10.25390625 -12.9375 8.5625 C-8.45989429 5.87825058 -4.20814352 3.08597191 0 0 Z " fill="url(#paint0_linear)" transform="translate(320,242)"/>
<path d="M0 0 C4.69815217 2.54483243 8.90447882 5.33020127 13.10546875 8.6328125 C14.99761271 9.99827721 16.88805881 11.01661275 19 12 C18.89042969 12.58523437 18.78085938 13.17046875 18.66796875 13.7734375 C17.57035403 19.71661965 16.51962794 25.66798742 15.5 31.625 C15.38164795 32.29708496 15.2632959 32.96916992 15.14135742 33.66162109 C13.77134397 41.7553819 12.96341874 49.81094071 12 58 C-0.21 58 -12.42 58 -25 58 C-22.20693986 35.65551887 -16.16809126 16.16809126 0 0 Z " fill="url(#paint0_linear)" transform="translate(191,242)"/>
<path d="M0 0 C12.21 0 24.42 0 37 0 C37.598125 4.640625 38.19625 9.28125 38.8125 14.0625 C40.17613561 24.46211314 41.63189681 34.77409984 44 45 C43.35933594 45.44730469 42.71867187 45.89460938 42.05859375 46.35546875 C37.01979528 49.87737111 31.99518082 53.41650072 27 57 C16.12522595 52.1405565 9.66029955 37.72557681 5.38671875 27.19140625 C2.06169722 17.92254092 1.26099923 10.08799387 0 0 Z " fill="url(#paint0_linear)" transform="translate(166,310)"/>
<path d="M0 0 C12.21 0 24.42 0 37 0 C34.75 18 34.75 18 32 25 C31.24074219 24.89300781 30.48148437 24.78601563 29.69921875 24.67578125 C28.70535156 24.55589844 27.71148437 24.43601562 26.6875 24.3125 C25.20830078 24.12107422 25.20830078 24.12107422 23.69921875 23.92578125 C21.02774899 23.79493807 21.02774899 23.79493807 19.0625 25.0546875 C17.36140234 28.16919719 18.44493606 30.46006156 19.3125 33.8125 C21.5739935 42.71534148 21.5739935 42.71534148 21 47 C19.03125 49.7734375 19.03125 49.7734375 16.5 52.375 C15.24703125 53.68597656 15.24703125 53.68597656 13.96875 55.0234375 C12.99421875 56.00183594 12.99421875 56.00183594 12 57 C8.09504654 55.17047521 4.46132303 52.91064964 0.8125 50.625 C0.17119141 50.23828125 -0.47011719 49.8515625 -1.13085938 49.453125 C-5.65108732 46.60829305 -5.65108732 46.60829305 -7.03515625 44.1953125 C-6.98015985 40.7610926 -6.09720528 37.55643369 -5.25 34.25 C-2.52252787 22.94265263 -1.32749929 11.54924382 0 0 Z " fill="url(#paint0_linear)" transform="translate(309,310)"/>
<path d="M0 0 C0.98097656 0.26554687 1.96195313 0.53109375 2.97265625 0.8046875 C11.35760114 3.01730864 19.56299925 4.64362974 28.18359375 5.60546875 C31 6 31 6 32 7 C32.08846834 9.52068181 32.11534524 12.01454417 32.09765625 14.53515625 C32.09664917 15.20252808 32.09564209 15.8698999 32.09460449 16.55749512 C32.08935808 19.0591808 32.07539691 21.56084206 32.0625 24.0625 C32.041875 29.651875 32.02125 35.24125 32 41 C19.46 41 6.92 41 -6 41 C-4.84748521 21.40724852 -4.84748521 21.40724852 -3 12.625 C-2.82210937 11.72523438 -2.64421875 10.82546875 -2.4609375 9.8984375 C-1.78219075 6.51483432 -1.09251005 3.27753016 0 0 Z " fill="url(#paint0_linear)" transform="translate(219,259)"/>
<path d="M0 0 C3.5138759 13.66317766 4.9820593 26.91848692 6 41 C-6.54 41 -19.08 41 -32 41 C-32.020625 35.410625 -32.04125 29.82125 -32.0625 24.0625 C-32.071604 22.29656494 -32.08070801 20.53062988 -32.09008789 18.71118164 C-32.09300714 17.31917395 -32.09555567 15.92716541 -32.09765625 14.53515625 C-32.10277222 13.80615112 -32.10788818 13.077146 -32.11315918 12.3260498 C-32.11347011 10.55029924 -32.06228515 8.77465792 -32 7 C-30.11988032 5.11988032 -26.83679217 5.46509431 -24.3125 5.1875 C-17.52106694 4.37999458 -11.27245072 2.83011469 -4.73046875 0.8046875 C-2 0 -2 0 0 0 Z " fill="url(#paint0_linear)" transform="translate(293,259)"/>
<path d="M0 0 C12.54 0 25.08 0 38 0 C38 11.22 38 22.44 38 34 C27.625 35.8125 27.625 35.8125 24.42041016 36.36254883 C18.12230888 37.48624977 12.08274799 39.01889089 6 41 C2.4861241 27.33682234 1.0179407 14.08151308 0 0 Z " fill="url(#paint0_linear)" transform="translate(213,310)"/>
<path d="M0 0 C12.54 0 25.08 0 38 0 C36.9820593 14.08151308 35.5138759 27.33682234 32 41 C31.11441406 40.74605469 30.22882813 40.49210937 29.31640625 40.23046875 C19.59956983 37.53078579 9.95357216 35.64521854 0 34 C0 22.78 0 11.56 0 0 Z " fill="url(#paint0_linear)" transform="translate(261,310)"/>
<path d="M0 0 C10.56 2.64 21.12 5.28 32 8 C32 8.99 32 9.98 32 11 C31.319375 11.61875 30.63875 12.2375 29.9375 12.875 C27.72811287 14.8020794 27.72811287 14.8020794 28.07421875 17.28125 C29.30037563 20.88211577 31.26224862 22.87593116 33.875 25.625 C34.75929688 26.56601562 35.64359375 27.50703125 36.5546875 28.4765625 C38.3548682 30.33425696 40.15878817 32.18317508 42 34 C41.06725891 35.12894876 40.12859878 36.25300876 39.1875 37.375 C38.66542969 38.00148438 38.14335937 38.62796875 37.60546875 39.2734375 C36 41 36 41 33 43 C31.69675781 41.60974609 31.69675781 41.60974609 30.3671875 40.19140625 C29.20380683 38.98111506 28.03970618 37.77151566 26.875 36.5625 C26.30523437 35.95083984 25.73546875 35.33917969 25.1484375 34.70898438 C22.49840444 31.98366628 20.50914174 30.20378691 16.9453125 28.77734375 C12.63528916 29.1031678 11.05643858 31.01633377 8 34 C7.03941238 30.66731218 6.08194662 27.33373495 5.125 24 C4.85558594 23.06542969 4.58617187 22.13085938 4.30859375 21.16796875 C3.52876549 18.44807995 2.75992077 15.72551451 2 13 C1.78827148 12.24203125 1.57654297 11.4840625 1.35839844 10.703125 C0.34813519 6.91151974 0 3.99272837 0 0 Z " fill="url(#paint0_linear)" transform="translate(339,345)"/>
<path d="M0 0 C0 13.2 0 26.4 0 40 C-11.70768984 36.65494576 -17.19335643 29.36284657 -23 19 C-23.78117188 17.62134766 -23.78117188 17.62134766 -24.578125 16.21484375 C-28.10450015 9.6367978 -28.10450015 9.6367978 -27.625 6.71484375 C-27.315625 5.86599609 -27.315625 5.86599609 -27 5 C-24.64716625 4.34895849 -22.29291551 3.70407878 -19.9375 3.0625 C-19.28072266 2.88009766 -18.62394531 2.69769531 -17.94726562 2.50976562 C-11.93922144 0.8819704 -6.25649852 0 0 0 Z " fill="url(#paint0_linear)" transform="translate(251,354)"/>
<path d="M0 0 C9.70960812 1.94192162 15.63316272 8.98708787 21 17 C28 29.04026528 28 29.04026528 28 34 C26.15167893 34.64208118 24.29576326 35.26228744 22.4375 35.875 C21.40496094 36.22304687 20.37242187 36.57109375 19.30859375 36.9296875 C12.98376301 38.50086032 6.45989147 39.13868114 0 40 C0 26.8 0 13.6 0 0 Z " fill="url(#paint0_linear)" transform="translate(261,216)"/>
<path d="M0 0 C13.5 1.125 13.5 1.125 20.25 3.0625 C20.91128906 3.24876953 21.57257813 3.43503906 22.25390625 3.62695312 C23.83873838 4.07484047 25.41984443 4.53588327 27 5 C27.79340088 7.29964783 28.14005024 8.57553007 27.36669922 10.91943359 C27.01623535 11.57250488 26.66577148 12.22557617 26.3046875 12.8984375 C25.91796875 13.62546875 25.53125 14.3525 25.1328125 15.1015625 C24.51019531 16.22691406 24.51019531 16.22691406 23.875 17.375 C23.483125 18.1175 23.09125 18.86 22.6875 19.625 C19.37963059 25.7434774 15.7145966 31.04271337 10.0625 35.25 C9.43472656 35.72953125 8.80695313 36.2090625 8.16015625 36.703125 C6 38 6 38 0 40 C0 26.8 0 13.6 0 0 Z " fill="url(#paint0_linear)" transform="translate(261,354)"/>
<path d="M0 0 C0 12.87 0 25.74 0 39 C-6.52489441 39 -11.31109609 38.73789984 -17.375 37.0625 C-18.07238281 36.88009766 -18.76976562 36.69769531 -19.48828125 36.50976562 C-22.35751571 35.75253004 -25.18438269 34.9385391 -28 34 C-26.09560846 21.86503993 -17.90984815 10.92686563 -8.67578125 3.19140625 C-5.68728481 1.06671764 -3.71525186 0 0 0 Z " fill="url(#paint0_linear)" transform="translate(251,216)"/>
<path d="M0 0 C0.28721924 0.55461914 0.57443848 1.10923828 0.87036133 1.68066406 C2.18068143 4.20572984 3.49652909 6.72787494 4.8125 9.25 C5.26431641 10.12269531 5.71613281 10.99539063 6.18164062 11.89453125 C6.62314453 12.73886719 7.06464844 13.58320313 7.51953125 14.453125 C7.92276611 15.22817383 8.32600098 16.00322266 8.74145508 16.80175781 C10.00923895 19.01613724 11.42724905 20.99359345 13 23 C12.67 23.66 12.34 24.32 12 25 C2.00391301 21.06782169 -7.45366196 16.9296441 -15 9 C-13.58680023 7.87064804 -12.16928595 6.74669374 -10.75 5.625 C-9.96109375 4.99851562 -9.1721875 4.37203125 -8.359375 3.7265625 C-3.26696833 0 -3.26696833 0 0 0 Z " fill="url(#paint0_linear)" transform="translate(214,365)"/>
<path d="M0 0 C-1.28853931 2.62087448 -2.64189131 5.18103299 -4.09375 7.71484375 C-4.48433594 8.40126953 -4.87492187 9.08769531 -5.27734375 9.79492188 C-6.09076696 11.22036159 -6.90586531 12.64484673 -7.72265625 14.06835938 C-9.7519742 17.6414324 -11.60283318 21.11982475 -13 25 C-16.89006773 23.61219205 -19.96558708 21.7847773 -23.3125 19.375 C-24.19550781 18.74335938 -25.07851562 18.11171875 -25.98828125 17.4609375 C-26.65214844 16.97882813 -27.31601563 16.49671875 -28 16 C-22.00743526 9.20842663 -9.31430084 0 0 0 Z " fill="url(#paint0_linear)" transform="translate(227,220)"/>
<path d="M0 0 C6.28518653 1.68353211 11.71375506 4.29356922 17.375 7.4375 C18.07689453 7.82091553 18.77878906 8.20433105 19.50195312 8.59936523 C23.11163934 10.64703385 25.81548081 12.33967968 28 16 C26.44210317 17.13136586 24.87846143 18.25482321 23.3125 19.375 C22.44238281 20.00148437 21.57226562 20.62796875 20.67578125 21.2734375 C18.16403048 22.89415843 15.80700813 23.99858088 13 25 C12.48050781 23.92621094 11.96101563 22.85242188 11.42578125 21.74609375 C10.7216835 20.30973435 10.01723775 18.8735455 9.3125 17.4375 C8.97283203 16.73302734 8.63316406 16.02855469 8.28320312 15.30273438 C6.4976439 11.68155352 4.62468144 8.35496783 2.23046875 5.09765625 C0 2 0 2 0 0 Z " fill="url(#paint0_linear)" transform="translate(285,220)"/>
<path d="M0 0 C6.13602988 1.41600689 10.26698362 5.0663375 15 9 C7.25702126 17.17215077 -2.51223739 21.38180527 -13 25 C-11.6245467 21.21409884 -9.8630346 18.09239228 -7.625 14.75 C-4.54112967 10.00508886 -2.08827472 5.25311343 0 0 Z " fill="url(#paint0_linear)" transform="translate(298,365)"/>
<path d="M0 0 C3.32274404 2.45594125 4.77618008 3.9256644 5.625 8 C4.7607855 12.14822958 3.48304057 13.60540961 0 16 C-3.90643505 16.44080396 -6.9268389 15.81300083 -10.0625 13.4375 C-11.46275188 9.79684512 -11.14686429 6.69981561 -10 3 C-7.14177021 -0.3875316 -4.27949922 -0.69869375 0 0 Z " fill="url(#paint0_linear)" transform="translate(335,73)"/>
<path d="M0 0 C3.65005579 0.69894685 4.79314611 1.54452045 6.9375 4.5625 C7.86068632 7.72771024 8.23573742 9.66778774 7.1875 12.8125 C5.9375 14.5625 5.9375 14.5625 2.9375 16.5625 C-0.78726949 17.0483395 -2.61661242 16.80483021 -5.9375 15 C-8.0625 12.5625 -8.0625 12.5625 -8.6875 9.125 C-7.74345694 3.74395455 -5.45788454 1.00246859 0 0 Z " fill="url(#paint0_linear)" transform="translate(382.0625,72.4375)"/>
<path d="M0 0 C2.80618215 2.35357213 2.97918231 3.8542762 3.5 7.5 C3 11 3 11 0.9375 13.5 C-2.89378967 15.45640324 -4.8999226 15.13891039 -9 14 C-11.68650909 12.29854424 -11.95634757 11.15782031 -12.8125 8.0625 C-13.01028636 4.83198949 -12.92199114 3.56265486 -11 1 C-7.44020669 -1.76872813 -4.1946238 -1.06772242 0 0 Z " fill="url(#paint0_linear)" transform="translate(436,74)"/>
</svg>
