<svg xmlns="http://www.w3.org/2000/svg" fill="none" viewBox="0 0 100 100" id="Cloudinary-Icon--Streamline-Svg-Logos" height="100" width="100">
  <desc>
    Cloudinary Icon Streamline Icon: https://streamlinehq.com
  </desc>
  <path fill="#3448c5" d="M29.750937500000003 46.72114583333334c0.07166666666666667 0 0.1403125 0.02875 0.19062500000000002 0.07979166666666668l9.011354166666667 9.019479166666667c0.07437500000000001 0.07635416666666668 0.09625 0.18968750000000004 0.05572916666666667 0.2882291666666667 -0.04052083333333333 0.09864583333333335 -0.13562500000000002 0.16385416666666666 -0.24229166666666668 0.16593750000000002h-2.303541666666667c-0.14916666666666667 0 -0.2713541666666667 0.11854166666666667 -0.2757291666666667 0.2677083333333334V76.81979166666667c0.0032291666666666666 1.2835416666666668 0.5134375 2.51375 1.4194791666666668 3.422916666666667l1.3463541666666667 1.3464583333333333c0.07437500000000001 0.07635416666666668 0.09625 0.18968750000000004 0.05572916666666667 0.2882291666666667 -0.04052083333333333 0.09864583333333335 -0.13562500000000002 0.16385416666666666 -0.24229166666666668 0.16593750000000002H28.140937500000003c-2.6877083333333336 0 -4.866562500000001 -2.1788541666666665 -4.866562500000001 -4.866562500000001V56.54229166666667c0 -0.1478125 -0.11989583333333334 -0.2677083333333334 -0.2677083333333334 -0.2677083333333334h-2.271041666666667c-0.10812500000000001 0.0011458333333333336 -0.20625000000000002 -0.06281250000000001 -0.24875000000000003 -0.1621875 -0.042604166666666665 -0.099375 -0.02125 -0.2144791666666667 0.054062500000000006 -0.2919791666666667l9.019479166666667 -9.019479166666667c0.0503125 -0.05104166666666667 0.11895833333333333 -0.07979166666666668 0.19052083333333336 -0.07979166666666668Zm19.928854166666667 5.223541666666667c0.07166666666666667 0 0.1403125 0.02875 0.19062500000000002 0.07979166666666668l9.019479166666667 8.986979166666666c0.0753125 0.0775 0.09666666666666666 0.19270833333333334 0.054062500000000006 0.2919791666666667 -0.042604166666666665 0.099375 -0.14072916666666668 0.16333333333333333 -0.24875000000000003 0.1621875H56.39166666666667c-0.14916666666666667 0.004479166666666667 -0.2677083333333334 0.12666666666666668 -0.2677083333333334 0.2758333333333333V76.81979166666667c0.0011458333333333336 1.2823958333333334 0.5083333333333333 2.5125 1.4113541666666667 3.422916666666667l1.3545833333333335 1.3464583333333333c0.0753125 0.07739583333333334 0.09666666666666666 0.1926041666666667 0.054062500000000006 0.2919791666666667 -0.042604166666666665 0.09927083333333334 -0.14072916666666668 0.16333333333333333 -0.24875000000000003 0.1621875H48.0940625c-2.6877083333333336 0 -4.866562500000001 -2.1788541666666665 -4.866562500000001 -4.866562500000001V61.75770833333333c0 -0.14927083333333335 -0.11854166666666667 -0.27145833333333336 -0.2677083333333334 -0.2758333333333333h-2.2954166666666667c-0.1065625 -0.0020833333333333337 -0.20177083333333337 -0.06729166666666668 -0.24229166666666668 -0.16593750000000002 -0.04041666666666667 -0.09854166666666668 -0.018541666666666668 -0.211875 0.05572916666666667 -0.2882291666666667l9.011354166666667 -9.003229166666667c0.0503125 -0.05104166666666667 0.11895833333333333 -0.07979166666666668 0.19062500000000002 -0.07979166666666668Zm19.9328125 5.167395833333334c0.07031250000000001 0 0.13770833333333335 0.02854166666666667 0.18656250000000002 0.0790625l9.019479166666667 9.011354166666667c0.08010416666666667 0.075625 0.10572916666666668 0.1926041666666667 0.06458333333333334 0.2947916666666667 -0.04125000000000001 0.10229166666666667 -0.14093750000000002 0.16875 -0.25114583333333335 0.1675h-2.3116666666666665c-0.1478125 0 -0.2676041666666667 0.11989583333333334 -0.2676041666666667 0.2677083333333334v9.887291666666666c0.0032291666666666666 1.2835416666666668 0.5134375 2.51375 1.419375 3.422916666666667l1.3464583333333333 1.3464583333333333c0.07437500000000001 0.07635416666666668 0.09625 0.18968750000000004 0.05572916666666667 0.2882291666666667 -0.04052083333333333 0.09864583333333335 -0.13572916666666668 0.16385416666666666 -0.24229166666666668 0.16593750000000002H67.99854166666667c-2.6877083333333336 0 -4.866666666666667 -2.1788541666666665 -4.866666666666667 -4.866562500000001v-10.244270833333335c0 -0.1478125 -0.11979166666666669 -0.2677083333333334 -0.2676041666666667 -0.2677083333333334h-2.271145833333333c-0.11010416666666668 0.00125 -0.20979166666666668 -0.06520833333333334 -0.25104166666666666 -0.1675 -0.04125000000000001 -0.10218750000000001 -0.015625 -0.21916666666666668 0.06458333333333334 -0.2947916666666667l9.019375 -9.011354166666667c0.04895833333333334 -0.05052083333333334 0.11625000000000002 -0.0790625 0.18656250000000002 -0.0790625ZM49.49729166666667 17.957083333333337c14.1675 0.10312500000000001 26.663125 9.303020833333333 30.967916666666667 22.801145833333333C90.98677083333334 42.13135416666667 98.88145833333333 51.05791666666667 98.95833333333334 61.66843750000001c0 8.757291666666667 -5.476770833333333 16.034479166666667 -14.319479166666667 19.06416666666667l-0.32906250000000004 0.11031250000000001 -0.40552083333333333 0.12979166666666667v-6.5375000000000005c5.6209375 -2.3684375 8.922083333333335 -7.048541666666668 8.922083333333335 -12.766770833333334 -0.02875 -8.069062500000001 -6.419062500000001 -14.657812500000002 -14.450104166666668 -14.965000000000002l-0.2713541666666667 -0.007916666666666667h-2.4333333333333336l-0.5839583333333334 -2.3197916666666667c-2.8661458333333334 -11.830729166666668 -13.417604166666669 -20.19166666666667 -25.590312500000003 -20.277604166666666 -10.0159375 -0.04802083333333334 -19.162604166666668 5.6433333333333335 -23.55197916666667 14.622708333333335l-0.9028125000000001 1.8589583333333335 -1.7032291666666668 0.17843750000000003c-7.692812500000001 0.8229166666666667 -14.009427083333334 6.449583333333334 -15.712791666666668 13.996354166666668 -1.6790208333333336 7.4390625 1.4911562500000002 15.118541666666667 7.8970625000000005 19.21291666666667l0.28052083333333333 0.17572916666666666v6.894375h-0.04052083333333333l-0.6083333333333334 -0.2758333333333333C5.533885416666667 76.33864583333335 -0.10183916666666666 66.18114583333335 1.237197916666667 55.67687500000001 2.576239583333334 45.172604166666666 10.580000000000002 36.753750000000004 21.003229166666667 34.88583333333334c5.631354166666667 -10.483020833333335 16.594479166666666 -16.9959375 28.494062500000002 -16.92875Z" stroke-width="1.0417"></path>
</svg>