<?xml version="1.0" encoding="UTF-8"?>
<svg version="1.1" xmlns="http://www.w3.org/2000/svg" width="512" height="512">
<defs>
    <linearGradient id="paint0_linear" x1="3.26667" y1="1" x2="37.8" y2="39.1334" gradientUnits="userSpaceOnUse">
    <stop offset="0.259336" stop-color="#00f5ff"/>
    <stop offset="1" stop-color="#00ffff"/>
    </linearGradient>
</defs>

<path d="M0 0 C3.63700758 1.11907925 5.34383583 3.46398694 7.1328125 6.65625 C8.58666757 10.62836625 9.70483336 14.66638355 10.78283691 18.75500488 C11.71045784 22.25207046 12.70180123 25.73099464 13.69140625 29.2109375 C13.89283234 29.9212915 14.09425842 30.63164551 14.30178833 31.36352539 C23.54015648 63.66993338 36.317645 94.48721671 60.1328125 118.65625 C60.82503906 119.36136719 61.51726562 120.06648438 62.23046875 120.79296875 C87.72838862 145.01353618 125.01164853 155.61852414 158.09375 164.70166016 C159.33253906 165.04632324 160.57132812 165.39098633 161.84765625 165.74609375 C162.94198975 166.04378662 164.03632324 166.34147949 165.16381836 166.64819336 C172.3484813 169.08758759 172.3484813 169.08758759 174.1328125 172.65625 C174.78828953 178.36826413 174.78828953 178.36826413 174.1328125 180.65625 C169.67820344 185.32867117 165.47728238 186.77182264 159.3203125 188.28125 C110.99833497 201.16184971 64.64556535 218.42825071 37.67260742 263.18725586 C23.76322416 287.24448153 14.86126553 315.50740429 8.10839844 342.36401367 C6.94396769 346.77254118 6.0262447 349.90022496 2.1328125 352.65625 C0.1328125 353.1875 0.1328125 353.1875 -1.8671875 353.15625 C-2.8571875 353.17171875 -2.8571875 353.17171875 -3.8671875 353.1875 C-6.74981166 352.42180296 -7.92366746 350.88730975 -9.8671875 348.65625 C-10.89697266 346.29150391 -10.89697266 346.29150391 -11.65625 343.6328125 C-11.95265381 342.62686035 -12.24905762 341.6209082 -12.55444336 340.58447266 C-12.86389893 339.49440918 -13.17335449 338.4043457 -13.4921875 337.28125 C-14.19117035 334.92623852 -14.89311532 332.57210467 -15.59765625 330.21875 C-15.96552246 328.98382813 -16.33338867 327.74890625 -16.71240234 326.4765625 C-22.27687582 308.06791958 -28.29769857 289.91539961 -36.8671875 272.65625 C-37.16689453 272.04056152 -37.46660156 271.42487305 -37.77539062 270.79052734 C-56.90955967 231.79212699 -92.0504113 211.39426586 -131.8671875 197.65625 C-139.26724492 195.21502347 -146.70701972 192.91253136 -154.16796875 190.6640625 C-155.27092285 190.33051758 -156.37387695 189.99697266 -157.51025391 189.65332031 C-159.82438795 188.96598043 -162.14490537 188.29989502 -164.47021484 187.65136719 C-166.20392334 187.15491699 -166.20392334 187.15491699 -167.97265625 186.6484375 C-169.0093042 186.36081543 -170.04595215 186.07319336 -171.11401367 185.77685547 C-174.17455089 184.53114599 -175.76548081 183.18175002 -177.8671875 180.65625 C-178.3984375 178.65625 -178.3984375 178.65625 -178.3671875 176.65625 C-178.38265625 175.66625 -178.38265625 175.66625 -178.3984375 174.65625 C-177.58148795 171.58067522 -176.42453126 170.58492959 -173.8671875 168.65625 C-170.71147893 167.37392281 -167.46054326 166.49828764 -164.1796875 165.59375 C-162.10433011 164.98957468 -160.03017954 164.3812438 -157.95703125 163.76953125 C-156.26102783 163.26993896 -156.26102783 163.26993896 -154.53076172 162.76025391 C-108.56145588 148.90758158 -64.67916785 131.96969807 -40.33349609 87.72290039 C-29.36055294 67.05795011 -22.16749272 45.18638003 -15.53295898 22.83911133 C-15.19927811 21.71683388 -15.19927811 21.71683388 -14.8588562 20.57188416 C-14.44582928 19.17797947 -14.03560277 17.78324015 -13.62893677 16.38746643 C-8.99897633 0.70580206 -8.99897633 0.70580206 0 0 Z " fill="url(#paint0_linear)" transform="translate(297.8671875,79.34375)"/>
<path d="M0 0 C3.00798443 0.68127095 4.05847889 2.10841806 6.03515625 4.4609375 C7.01686927 6.85570055 7.81948341 9.11155376 8.55078125 11.578125 C9.00246114 13.00525361 9.45428916 14.43233534 9.90625 15.859375 C10.59317154 18.07985493 11.27477383 20.30183145 11.95166016 22.52539062 C16.43685022 37.14915044 21.99080794 50.36802541 34.03515625 60.4609375 C34.65132813 60.98816406 35.2675 61.51539063 35.90234375 62.05859375 C47.11247339 70.49995643 62.59709027 74.65866032 75.94287109 78.3828125 C80.24994248 79.63986004 83.28830909 80.68224362 86.03515625 84.4609375 C86.90594277 89.94689256 86.90594277 89.94689256 86.03515625 92.4609375 C81.46264246 97.25952454 76.90140077 98.74841569 70.59765625 100.3984375 C50.68260983 106.02007493 31.79342867 113.26075112 20.84765625 132.0234375 C15.92147947 140.89730389 12.45002334 150.36350747 9.6953125 160.11328125 C9.3698645 161.26509888 9.3698645 161.26509888 9.0378418 162.44018555 C8.63002774 163.91551753 8.23613026 165.39479262 7.85864258 166.87817383 C6.71919291 171.09560428 5.58801173 173.82772245 2.03515625 176.4609375 C-3.45079881 177.33172402 -3.45079881 177.33172402 -5.96484375 176.4609375 C-12.05337416 171.16867423 -13.57241251 163.35881273 -15.83984375 155.8984375 C-21.36538917 137.73889236 -28.66160927 121.23980129 -45.96484375 111.4609375 C-47.18300781 110.74357422 -47.18300781 110.74357422 -48.42578125 110.01171875 C-55.98341698 105.88641902 -63.91819262 103.39532803 -72.13549805 100.90844727 C-87.79182815 96.16784647 -87.79182815 96.16784647 -89.96484375 92.4609375 C-90.57542067 86.96574519 -90.57542067 86.96574519 -89.96484375 84.4609375 C-87.05630976 80.98776329 -84.53049864 79.68422775 -80.23046875 78.3828125 C-78.54401245 77.85457886 -78.54401245 77.85457886 -76.82348633 77.31567383 C-75.63263428 76.95111084 -74.44178223 76.58654785 -73.21484375 76.2109375 C-52.00989082 69.43047202 -33.95184589 61.49765093 -23.02661133 41.09179688 C-19.00825629 33.07262143 -16.42339578 24.49605758 -13.7265625 15.96484375 C-8.76444107 0.37151773 -8.76444107 0.37151773 0 0 Z " fill="url(#paint0_linear)" transform="translate(129.96484375,39.5390625)"/>
<path d="M0 0 C3.42526743 1.18640548 5.25024962 3.74708181 7.09765625 6.7265625 C8.17586391 9.33631123 8.86163649 11.98810304 9.53515625 14.7265625 C14.25693096 32.04787203 20.97838966 47.03160806 36.94140625 56.39453125 C45.17440007 60.8344672 53.64274113 63.68473922 62.63330078 66.24194336 C71.43941796 68.8288086 71.43941796 68.8288086 74.09765625 72.7265625 C74.96844277 78.21251756 74.96844277 78.21251756 74.09765625 80.7265625 C69.52239541 85.53495766 65.03882074 86.93581224 58.72265625 88.5390625 C42.348142 93.09004611 27.78760631 99.53497907 18.75 114.59765625 C14.86333751 121.95750649 12.05438585 129.71648856 9.49609375 137.6171875 C9.23062744 138.43566162 8.96516113 139.25413574 8.69165039 140.09741211 C8.17913156 141.69869323 7.67789665 143.30363939 7.18920898 144.91235352 C5.42279893 150.50980071 5.42279893 150.50980071 2.09765625 152.7265625 C-3.53416193 153.26292614 -3.53416193 153.26292614 -5.90234375 152.7265625 C-9.16559321 149.95351434 -10.56992632 147.65231312 -11.796875 143.578125 C-12.10898926 142.579021 -12.42110352 141.57991699 -12.74267578 140.55053711 C-13.06349121 139.49487549 -13.38430664 138.43921387 -13.71484375 137.3515625 C-17.63519471 125.06442974 -21.57788833 113.05101792 -30.90234375 103.7265625 C-31.89234375 103.2315625 -31.89234375 103.2315625 -32.90234375 102.7265625 C-32.90234375 102.0665625 -32.90234375 101.4065625 -32.90234375 100.7265625 C-33.60488281 100.46230469 -34.30742188 100.19804687 -35.03125 99.92578125 C-38.09323099 98.64683137 -40.92042462 97.11605404 -43.83984375 95.5390625 C-51.05178952 91.75913916 -58.6226682 89.432815 -66.43725586 87.2121582 C-75.27047401 84.61488982 -75.27047401 84.61488982 -77.90234375 80.7265625 C-78.43359375 78.7265625 -78.43359375 78.7265625 -78.40234375 76.7265625 C-78.4178125 75.7365625 -78.4178125 75.7365625 -78.43359375 74.7265625 C-77.66200126 71.82174371 -76.16813277 70.67499885 -73.90234375 68.7265625 C-71.16015625 67.55737305 -71.16015625 67.55737305 -68.02734375 66.61328125 C-66.87621094 66.25169922 -65.72507812 65.89011719 -64.5390625 65.51757812 C-62.14645383 64.79157174 -59.75323959 64.06755755 -57.359375 63.34570312 C-50.0245386 61.037794 -43.74449233 58.19639523 -37.23046875 54.09301758 C-34.90234375 52.7265625 -34.90234375 52.7265625 -32.90234375 52.7265625 C-32.90234375 52.0665625 -32.90234375 51.4065625 -32.90234375 50.7265625 C-32.22171875 50.0665625 -31.54109375 49.4065625 -30.83984375 48.7265625 C-19.49351468 37.50772027 -14.8067089 21.84181602 -10.59155273 6.80126953 C-8.72980113 1.19688939 -5.66004164 0.29256676 0 0 Z " fill="url(#paint0_linear)" transform="translate(153.90234375,319.2734375)"/>
</svg>
