<?xml version="1.0" encoding="UTF-8"?>
<svg version="1.1" xmlns="http://www.w3.org/2000/svg" width="512" height="512">
<defs>
    <linearGradient id="paint0_linear" x1="3.26667" y1="1" x2="37.8" y2="39.1334" gradientUnits="userSpaceOnUse">
    <stop offset="0.259336" stop-color="#00f5ff"/>
    <stop offset="1" stop-color="#00ffff"/>
    </linearGradient>
</defs>

<path d="M0 0 C5.60156503 2.33398543 8.80293008 6.50905308 12.67578125 11.03515625 C18.40995862 17.06239209 26.08067494 19.98417334 34.28125 20.7578125 C43.7957322 19.95150045 51.40461776 16.67441765 57.73828125 9.41796875 C58.30933594 8.72574219 58.88039063 8.03351563 59.46875 7.3203125 C63.70975987 2.31169903 68.37353662 -0.55238179 74.96875 -1.3046875 C82.56393701 -0.87915071 89.4908723 3.79245175 95.96875 7.4453125 C97.35320312 8.22455078 97.35320312 8.22455078 98.765625 9.01953125 C101.73932129 10.70698589 104.70033938 12.41440734 107.65625 14.1328125 C108.60072998 14.67897217 109.54520996 15.22513184 110.51831055 15.7878418 C116.93938771 19.59170432 122.83445921 23.39315823 125.96875 30.4453125 C127.46810531 36.90407384 126.84766227 41.86058127 124.74609375 48.078125 C121.89666219 56.75528843 122.99847923 64.99761246 127.09375 73.1328125 C132.36198302 81.80089358 139.36943286 85.76295012 148.96875 88.4453125 C151.33814395 89.00470325 153.6979149 89.52152235 156.09375 89.953125 C157.96875 90.4453125 157.96875 90.4453125 160.96875 92.4453125 C160.96875 93.1053125 160.96875 93.7653125 160.96875 94.4453125 C161.62875 94.4453125 162.28875 94.4453125 162.96875 94.4453125 C166.0892218 99.67965229 168.06217893 103.52462612 168.14575195 109.70385742 C168.15858719 110.53539841 168.17142242 111.36693939 168.18464661 112.22367859 C168.19572701 113.56121941 168.19572701 113.56121941 168.20703125 114.92578125 C168.215103 115.85320633 168.22317474 116.78063141 168.23149109 117.73616028 C168.24530896 119.69884383 168.25604137 121.66155118 168.26391602 123.62426758 C168.27542084 125.62108454 168.29584884 127.61787111 168.32543945 129.61450195 C168.36833601 132.51013952 168.38431668 135.40486445 168.39453125 138.30078125 C168.41203934 139.18235397 168.42954742 140.0639267 168.44758606 140.97221375 C168.42117323 148.62188667 166.52730648 154.71838178 161.23828125 160.35546875 C157.42003559 162.79604393 154.01855817 163.83744889 149.65625 164.8828125 C139.51509923 167.62301853 132.86912155 171.07463319 127.16015625 180.19921875 C123.01732294 188.00947827 122.6800478 196.80630924 124.64453125 205.40234375 C125.17697953 207.04511073 125.72294902 208.68358429 126.28515625 210.31640625 C128.11594987 216.01802065 127.04293878 220.91923188 124.43896484 226.13183594 C119.46739504 233.95491721 109.27929537 238.3277543 101.40625 242.6328125 C100.32150391 243.23544922 99.23675781 243.83808594 98.11914062 244.45898438 C95.07909828 246.14051356 92.02734661 247.79782918 88.96875 249.4453125 C88.18983398 249.87416748 87.41091797 250.30302246 86.60839844 250.74487305 C80.83308021 253.81753349 76.36813724 254.23292939 69.96875 253.4453125 C63.31997009 251.27167291 59.11034651 245.74752875 54.46875 240.7578125 C47.43940779 234.25567096 40.61719728 233.06753345 31.2890625 233.171875 C22.77274684 233.87321864 16.80717265 238.49089469 10.96875 244.4453125 C10.0993665 245.51647268 9.24356078 246.59889904 8.40625 247.6953125 C4.3834016 252.2339107 0.08469093 253.59494301 -5.78125 254.2578125 C-15.04127608 253.97912498 -23.2752296 248.01891305 -31.03125 243.4453125 C-31.86865723 242.95401855 -32.70606445 242.46272461 -33.56884766 241.95654297 C-54.68307531 229.48983657 -54.68307531 229.48983657 -57.03125 222.4453125 C-57.66865499 215.98394688 -57.42024297 210.08802057 -55.46875 203.8828125 C-53.08122423 196.02339752 -53.74464126 188.62573375 -57.09375 181.1328125 C-63.00063544 170.61855642 -72.18814942 167.07669825 -83.28125 163.9453125 C-89.63578439 162.07281647 -93.92221705 159.60353955 -97.19750977 153.62918091 C-98.87049644 149.24702134 -98.59861437 144.6681945 -98.5625 140.03515625 C-98.5663269 138.94948868 -98.57015381 137.86382111 -98.57409668 136.74525452 C-98.5768097 134.45833403 -98.56949147 132.17138219 -98.55273438 129.88452148 C-98.5312966 126.39040848 -98.55256897 122.89834677 -98.578125 119.40429688 C-98.57548202 117.17707881 -98.57035767 114.94986202 -98.5625 112.72265625 C-98.57059692 111.68189438 -98.57869385 110.64113251 -98.58703613 109.5688324 C-98.48622646 101.74952065 -96.85705905 98.65298764 -91.71875 92.8203125 C-87.94404195 89.78896128 -83.25610109 89.06007588 -78.65014648 87.97094727 C-73.23990208 86.64570217 -69.53349113 84.64883022 -65.03125 81.4453125 C-64.04125 81.1153125 -63.05125 80.7853125 -62.03125 80.4453125 C-60.93128108 78.65344241 -60.93128108 78.65344241 -60.03125 76.4453125 C-59.61746094 75.6409375 -59.20367187 74.8365625 -58.77734375 74.0078125 C-58.34550781 73.1621875 -57.91367188 72.3165625 -57.46875 71.4453125 C-57.03433594 70.5996875 -56.59992188 69.7540625 -56.15234375 68.8828125 C-53.11375695 62.27626837 -53.42326096 56.07894686 -55.53125 49.2578125 C-57.65464591 41.96308396 -58.62943458 34.19757194 -55.59375 27.0703125 C-48.57790329 19.88334757 -40.22230063 15.04433959 -31.46875 10.2578125 C-30.38400391 9.65517578 -29.29925781 9.05253906 -28.18164062 8.43164062 C-25.14156667 6.75009395 -22.0910562 5.09063534 -19.03125 3.4453125 C-18.23928223 3.01718262 -17.44731445 2.58905273 -16.63134766 2.14794922 C-10.74851848 -0.93118359 -6.40786167 -1.74983915 0 0 Z M-10.07421875 88.60546875 C-16.33685473 96.22293547 -21.58453461 105.59299758 -23.03125 115.4453125 C-23.23041016 116.76402344 -23.23041016 116.76402344 -23.43359375 118.109375 C-25.36166468 134.53047348 -21.19882773 149.96267501 -11.06640625 163.01171875 C0.08166004 176.34232393 13.80986503 183.42955039 31.20703125 185.2890625 C47.74529316 185.97601004 62.57575493 179.98439892 74.71875 168.9453125 C75.46125 168.1203125 76.20375 167.2953125 76.96875 166.4453125 C77.42507813 165.99285156 77.88140625 165.54039062 78.3515625 165.07421875 C87.76836778 155.18903834 92.89782534 140.82538109 93.28125 127.3203125 C92.66038618 110.61097749 86.47606397 94.85857354 74.1953125 83.2890625 C48.04152359 61.63188993 13.17855266 64.01888636 -10.07421875 88.60546875 Z " fill="url(#paint0_linear)" transform="translate(302.03125,215.5546875)"/>
<path d="M0 0 C4.65904164 2.37706206 8.33837404 5.98426169 12.16796875 9.51171875 C15.47520766 12.19840964 18.78187885 12.26495854 22.93359375 12.234375 C26.00422035 11.88609977 28.3464867 10.51629332 31 9 C31.66 9 32.32 9 33 9 C33.226875 8.4225 33.45375 7.845 33.6875 7.25 C35.66629537 3.85777937 38.50986942 1.74506529 42 0 C49.53520546 -1.14730235 54.67048088 1.32118812 61.0625 5.0625 C62.3319043 5.76149414 62.3319043 5.76149414 63.62695312 6.47460938 C77.84371287 14.53113861 77.84371287 14.53113861 80 21 C80.09308544 22.66458673 80.12996185 24.33281997 80.125 26 C80.12757813 26.86625 80.13015625 27.7325 80.1328125 28.625 C80 31 80 31 79 34 C78.36103691 39.40499923 78.63426238 43.89317521 81.6796875 48.50390625 C85.19191028 52.48373266 89.71351608 53.95833429 94.625 55.4375 C98.83599611 56.76464528 101.22337107 58.46610864 104 62 C106.94063275 68.02058592 106.3682712 74.24855078 106.375 80.8125 C106.39949219 82.05837891 106.42398438 83.30425781 106.44921875 84.58789062 C106.47241056 91.87398311 106.02054867 96.85004963 102 103 C98.97147069 105.58315735 95.83124432 106.34099669 92.0625 107.375 C86.71973798 108.89581601 82.88026615 110.97103883 79.85546875 115.84375 C78.84523266 118.39009851 78.76716864 120.33025551 78.8125 123.0625 C78.81894531 123.91972656 78.82539063 124.77695312 78.83203125 125.66015625 C78.91409966 128.15477968 78.91409966 128.15477968 80 131 C80.5042142 135.80243358 80.53261396 139.7958293 78.5625 144.25 C72.92965253 150.29500704 65.54399756 153.92265204 58.375 157.875 C57.65868408 158.28081299 56.94236816 158.68662598 56.2043457 159.10473633 C51.63483874 161.55827245 48.3099431 162.60648196 43 162 C39.55093579 160.81889969 36.6325618 159.1319527 34.8125 155.875 C34.4103125 154.946875 34.4103125 154.946875 34 154 C32.18398635 152.79996657 32.18398635 152.79996657 30 152 C29.2575 151.62875 28.515 151.2575 27.75 150.875 C22.56171831 149.2241831 18.51150635 149.3282194 13.625 151.5 C12.75875 151.995 11.8925 152.49 11 153 C10.34 153 9.68 153 9 153 C8.773125 153.5775 8.54625 154.155 8.3125 154.75 C6.08951132 158.56083774 3.14211008 160.61929664 -1 162 C-7.60455153 162.74030867 -11.76961239 160.54214225 -17.375 157.4375 C-18.21409912 156.98294434 -19.05319824 156.52838867 -19.91772461 156.06005859 C-35.5922886 147.40876123 -35.5922886 147.40876123 -38 141 C-38.23046875 138.52734375 -38.23046875 138.52734375 -38.1875 135.9375 C-38.18105469 135.08027344 -38.17460938 134.22304688 -38.16796875 133.33984375 C-38 131 -38 131 -37 128 C-36.4320284 122.26567139 -36.77955567 117.94568237 -40 113 C-43.12183056 109.25095234 -45.67444076 108.29963698 -50.375 107.1875 C-55.70608816 105.67203337 -58.71180885 104.20121719 -62.046875 99.78125 C-65.13544496 94.00916843 -64.22325414 87.02961106 -64.25 80.6875 C-64.270625 79.47642578 -64.29125 78.26535156 -64.3125 77.01757812 C-64.3405995 70.60035547 -64.29888982 65.59240369 -61 60 C-57.46417992 56.90615743 -53.81953289 55.54873458 -49.4375 54.0625 C-44.13249464 52.22448863 -40.80814935 50.05602707 -37.890625 45.125 C-36.89247291 42.74344414 -36.76407855 41.07073889 -36.8125 38.5 C-36.81894531 37.7471875 -36.82539062 36.994375 -36.83203125 36.21875 C-36.99757357 34.0320514 -37.46457554 32.12094496 -38 30 C-38.50180167 24.605632 -38.59929788 20.3439802 -35 16 C-30.36126238 11.89402828 -25.07260925 8.87040767 -19.75 5.75 C-18.84636719 5.19570312 -17.94273438 4.64140625 -17.01171875 4.0703125 C-11.32323578 0.74725626 -6.64517313 -1.24731127 0 0 Z M-1.171875 58.08203125 C-7.62351294 64.9928186 -10.96940404 71.4081667 -11 81 C-10.3532239 90.603219 -6.80376544 98.7214482 0.25 105.375 C8.41363018 111.64923106 16.88882119 113.01747711 27 112 C34.90379829 110.62328863 41.62636416 106.25193032 46.60546875 99.9765625 C51.57549388 92.36848884 53.85852702 84.08962197 52.375 75.0625 C50.1108945 65.39935691 45.03412441 58.75801496 37 53 C24.44610841 45.81569372 9.00854461 48.32274411 -1.171875 58.08203125 Z " fill="url(#paint0_linear)" transform="translate(107,181)"/>
<path d="M0 0 C4.38340797 2.40657693 7.48836744 5.48836744 11 9 C15.4790927 11.72722769 19.90036101 11.63647266 25 11 C28.84432383 9.65557673 31.47570706 7.67175033 34 4.4375 C36.688016 1.1614805 38.95713536 0.21285939 43 -1 C49.7217736 -0.7497212 54.2505316 1.32710251 60 4.6875 C60.75539063 5.10966797 61.51078125 5.53183594 62.2890625 5.96679688 C76.65012096 14.14667811 76.65012096 14.14667811 79 20 C79.23046875 22.47265625 79.23046875 22.47265625 79.1875 25.0625 C79.17783203 26.34833984 79.17783203 26.34833984 79.16796875 27.66015625 C79 30 79 30 78 33 C77.4320284 38.73432861 77.77955567 43.05431763 81 48 C84.12183056 51.74904766 86.67444076 52.70036302 91.375 53.8125 C96.70608816 55.32796663 99.71180885 56.79878281 103.046875 61.21875 C106.13544496 66.99083157 105.22325414 73.97038894 105.25 80.3125 C105.2809375 82.12911133 105.2809375 82.12911133 105.3125 83.98242188 C105.34060927 90.40187736 105.29357701 95.40327725 102 101 C98.32419897 104.29879579 94.5124158 105.51407883 89.875 106.9375 C85.16704806 108.42330166 82.47270561 109.50417162 80 114 C79.64550781 114.61875 79.29101562 115.2375 78.92578125 115.875 C77.88478703 118.26445508 77.76365606 119.90683064 77.8125 122.5 C77.81894531 123.2528125 77.82539063 124.005625 77.83203125 124.78125 C77.99757357 126.9679486 78.46457554 128.87905504 79 131 C79.3823564 135.11033131 79.44937569 138.79230282 78 142.6875 C72.90107425 148.5831329 65.77563239 152.56032734 59.0625 156.375 C57.94198242 157.04982422 57.94198242 157.04982422 56.79882812 157.73828125 C51.52965927 160.72975071 47.06712649 161.98104463 41 161 C37.91205152 159.42451608 35.65439794 157.65297224 33.20703125 155.2109375 C28.78970481 150.92586634 25.63101311 148.97665632 19.3828125 148.8046875 C12.73239651 149.34980356 8.94434038 152.64172249 4.67578125 157.37890625 C1.70457258 160.25315239 -0.73535135 160.95661498 -4.8125 161.625 C-12.26197682 161.45346599 -18.7998316 156.75315577 -25 153 C-25.59941406 152.64244629 -26.19882813 152.28489258 -26.81640625 151.91650391 C-37.52725547 145.45584905 -37.52725547 145.45584905 -39 140 C-39.23046875 137.68359375 -39.23046875 137.68359375 -39.1875 135.4375 C-39.18105469 134.69371094 -39.17460937 133.94992188 -39.16796875 133.18359375 C-39.0008578 131.0111514 -38.54188424 129.10548913 -38 127 C-37.20262699 120.9399651 -37.96246574 116.67550224 -41.5234375 111.65234375 C-44.25541332 108.59513271 -47.35655747 107.49157839 -51.20703125 106.33984375 C-56.35444278 104.77769398 -59.55517683 103.3843204 -63 99 C-65.94063275 92.97941408 -65.3682712 86.75144922 -65.375 80.1875 C-65.39949219 78.94162109 -65.42398438 77.69574219 -65.44921875 76.41210938 C-65.47241056 69.12601689 -65.02054867 64.14995037 -61 58 C-57.97147069 55.41684265 -54.83124432 54.65900331 -51.0625 53.625 C-45.43599305 52.0150308 -41.76420288 49.88687744 -38.625 44.75 C-37.49539594 39.77974212 -37.38416399 34.84750803 -39 30 C-39.23828125 27.73046875 -39.23828125 27.73046875 -39.3125 25.1875 C-39.34988281 24.35605469 -39.38726562 23.52460937 -39.42578125 22.66796875 C-38.6507058 17.8113033 -36.09906251 14.83760462 -32.2578125 11.91015625 C-28.85657612 9.90419015 -25.44968753 7.9212754 -22 6 C-21.08758545 5.47744629 -21.08758545 5.47744629 -20.15673828 4.94433594 C-7.17398323 -2.43403003 -7.17398323 -2.43403003 0 0 Z M-4 59 C-9.71506384 66.39130658 -12.4838792 74.30311181 -11.8046875 83.703125 C-10.26000967 92.85885176 -6.37971272 100.25556453 1 106 C10.01257909 111.44979392 18.02968081 113.32220507 28.4375 110.875 C36.7256873 108.44531222 43.17281374 103.13518469 48 96 C52.39372412 87.46999653 52.68992042 79.0820969 50 70 C46.64440669 61.31855675 41.27835952 55.24325971 33 51 C20.27398164 45.75987479 5.14728713 48.62263758 -4 59 Z " fill="url(#paint0_linear)" transform="translate(268,43)"/>
<path d="M0 0 C1.20560326 0.12462616 1.20560326 0.12462616 2.43556213 0.25177002 C4.13296703 0.42980588 5.82998187 0.61159515 7.52661133 0.796875 C10.11479149 1.07659951 12.70449586 1.33576592 15.29492188 1.59375 C16.94674848 1.76958001 18.59844645 1.94662349 20.25 2.125 C21.40646278 2.23772247 21.40646278 2.23772247 22.58628845 2.35272217 C26.97200043 2.8536064 30.1431234 3.65889462 33.69140625 6.328125 C36.37133794 10.31136694 36.52683703 14.68776197 35.69140625 19.328125 C33.5098148 22.08381947 31.81963131 23.76401247 28.69140625 25.328125 C26.9843789 25.39808514 25.27472622 25.41252654 23.56640625 25.390625 C22.65632813 25.38160156 21.74625 25.37257813 20.80859375 25.36328125 C19.76058594 25.34587891 19.76058594 25.34587891 18.69140625 25.328125 C43.05444965 55.44970593 80.79693924 75.66573968 118.40625 83.2109375 C122.79940226 84.70492269 125.60487425 87.15506101 127.69140625 91.328125 C128.06853202 96.32504147 127.78431237 99.31880225 124.69140625 103.328125 C119.6775006 106.67072877 114.4445238 106.03050428 108.625 104.94140625 C68.71297863 96.14245974 28.92756281 74.08768294 2.69140625 42.328125 C2.03140625 41.998125 1.37140625 41.668125 0.69140625 41.328125 C0.79453125 42.215 0.89765625 43.101875 1.00390625 44.015625 C0.59472537 48.35294232 -1.06990672 49.56339217 -4.30859375 52.328125 C-4.63859375 52.658125 -4.96859375 52.988125 -5.30859375 53.328125 C-8.6904637 53.76651555 -11.93130273 53.80984713 -15.30859375 53.328125 C-18.13283663 51.13789582 -19.72367978 49.49795293 -21.30859375 46.328125 C-21.60017857 38.71539708 -20.82576859 31.26513648 -19.99609375 23.703125 C-19.87814453 22.51460938 -19.76019531 21.32609375 -19.63867188 20.1015625 C-18.88801763 13.20324243 -18.20109909 7.10095805 -13.87109375 1.453125 C-9.68662602 -1.55969176 -4.83908591 -0.52112699 0 0 Z " fill="url(#paint0_linear)" transform="translate(102.30859375,349.671875)"/>
<path d="M0 0 C1.00973625 0.34209503 1.00973625 0.34209503 2.03987122 0.69110107 C2.75294937 0.92577087 3.46602753 1.16044067 4.20071411 1.40222168 C5.69741916 1.89809243 7.1923801 2.39925603 8.68562317 2.90545654 C10.96449712 3.67508589 13.25038938 4.42030436 15.53791809 5.16375732 C16.99738633 5.6505904 18.45638821 6.13882428 19.91487122 6.62860107 C20.59410141 6.8485675 21.2733316 7.06853394 21.97314453 7.29516602 C25.96561837 8.67187461 28.66157848 10.07613414 31.27815247 13.42547607 C33.67655915 21.72361308 30.65184198 29.07097023 27.92854309 36.92889404 C27.15274724 39.17665015 26.41306342 41.43410248 25.67658997 43.69500732 C25.18911027 45.14233215 24.69959554 46.58897347 24.20783997 48.03485107 C23.98989777 48.70264587 23.77195557 49.37044067 23.54740906 50.05847168 C21.95410623 54.56713531 19.89913837 57.32689037 16.27815247 60.42547607 C13.58887438 61.54989485 11.1730997 61.72573479 8.27815247 61.42547607 C4.48254889 59.45738533 2.64928026 57.98216777 0.27815247 54.42547607 C0.01252747 52.37469482 0.01252747 52.37469482 0.02815247 50.11297607 C0.02041809 49.00502686 0.02041809 49.00502686 0.01252747 47.87469482 C0.33821004 44.87170991 1.24871641 42.25642522 2.27815247 39.42547607 C-18.67846069 48.73310288 -38.05605487 63.16971531 -52.44914246 81.12493896 C-52.86913513 81.55411621 -53.28912781 81.98329346 -53.72184753 82.42547607 C-54.38184753 82.42547607 -55.04184753 82.42547607 -55.72184753 82.42547607 C-55.94614441 82.94239014 -56.17044128 83.4593042 -56.40153503 83.99188232 C-58.22642007 87.35550178 -60.54639346 90.31697565 -62.84684753 93.36297607 C-67.29682863 99.32266749 -71.30130292 105.40403991 -75.06559753 111.81610107 C-78.37265521 117.02627685 -78.37265521 117.02627685 -81.80778503 118.04266357 C-85.57421809 118.46686935 -88.03762145 118.7080912 -91.59684753 117.23797607 C-95.40501585 113.98983251 -95.40501585 113.98983251 -96.72184753 111.42547607 C-97.85227953 95.69772656 -82.32034025 79.21958374 -72.55583191 67.91864014 C-62.38299431 56.5534638 -62.38299431 56.5534638 -58.72184753 53.42547607 C-58.06184753 53.42547607 -57.40184753 53.42547607 -56.72184753 53.42547607 C-56.72184753 52.76547607 -56.72184753 52.10547607 -56.72184753 51.42547607 C-47.5048978 41.29895893 -34.29201411 33.07482148 -22.58903503 26.14422607 C-19.56078041 24.32892357 -16.64559131 22.40355792 -13.72184753 20.42547607 C-14.50559753 19.86860107 -15.28934753 19.31172607 -16.09684753 18.73797607 C-18.91688709 16.25365551 -19.87905459 15.04948573 -20.72184753 11.42547607 C-20.64167253 6.93567569 -20.21405944 5.00603371 -17.28434753 1.55047607 C-11.83103358 -2.97178428 -6.55484053 -2.09956429 0 0 Z " fill="url(#paint0_linear)" transform="translate(173.7218475341797,55.57452392578125)"/>
<path d="M0 0 C19.40865449 14.53135012 32.69914707 41.25437781 42.30883789 62.82592773 C43.26611698 64.88731467 43.26611698 64.88731467 45.1875 67.625 C45.50203125 67.14289063 45.8165625 66.66078125 46.140625 66.1640625 C50.60645846 59.57292276 50.60645846 59.57292276 54.1875 58.625 C58.31869444 58.1659784 60.69722911 58.40299054 64.5 60.125 C67.46047397 62.87892928 68.24538649 64.54030967 69.25390625 68.33203125 C69.074728 74.51895097 64.72856121 80.30048618 61.5 85.375 C61.06083252 86.06875732 60.62166504 86.76251465 60.16918945 87.47729492 C48.73667802 105.38236668 48.73667802 105.38236668 43.1875 107.625 C33.98204197 108.18042328 27.58339298 102.83465371 20.375 97.8125 C19.15010132 96.98222784 17.92419591 96.15343889 16.69726562 95.32617188 C4.32867866 86.90735731 4.32867866 86.90735731 2.1875 82.625 C1.8130589 77.66365547 1.94851867 74.51177759 5.1875 70.625 C8.77460927 68.17924368 10.5736989 67.58407993 14.9375 67.875 C18.1875 68.625 18.1875 68.625 20.1875 69.625 C12.44586648 54.11005133 4.42734926 38.64132967 -7.66796875 26.0078125 C-8.8125 24.625 -8.8125 24.625 -8.8125 22.625 C-9.4725 22.625 -10.1325 22.625 -10.8125 22.625 C-14.6512436 18.61315656 -17.93426439 14.34792637 -17.8125 8.625 C-16.57787835 4.34013664 -15.70104272 2.23710721 -12 -0.3125 C-7.33186046 -1.86854651 -4.48638792 -2.1933452 0 0 Z " fill="url(#paint0_linear)" transform="translate(400.8125,113.375)"/>
</svg>
